<svg xmlns="http://www.w3.org/2000/svg" width="20.603" height="20.603" viewBox="0 0 20.603 20.603"><defs><style>.a{fill:#1b75bb;}</style></defs><path class="a" d="M18.189,1.61h-.966V0h-1.61V1.61H4.99V0H3.38V1.61H2.414A2.417,2.417,0,0,0,0,4.024V18.189A2.417,2.417,0,0,0,2.414,20.6H18.189A2.417,2.417,0,0,0,20.6,18.189V4.024A2.417,2.417,0,0,0,18.189,1.61Zm.8,16.579a.806.806,0,0,1-.8.8H2.414a.806.806,0,0,1-.8-.8V7.565H18.993Zm0-12.233H1.61V4.024a.806.806,0,0,1,.8-.8H3.38v1.61H4.99V3.219H15.613v1.61h1.61V3.219h.966a.806.806,0,0,1,.8.8Z"/><g transform="translate(3.08 9.24)"><g transform="translate(0 0)"><rect class="a" width="2" height="2" transform="translate(-0.08 -0.394)"/></g></g><g transform="translate(6.16 9.24)"><g transform="translate(0 0)"><rect class="a" width="2" height="2" transform="translate(-0.16 -0.394)"/></g></g><g transform="translate(9.24 9.24)"><g transform="translate(0 0)"><rect class="a" width="2" height="2" transform="translate(-0.24 -0.394)"/></g></g><g transform="translate(13.09 9.24)"><g transform="translate(0 0)"><rect class="a" width="2" height="2" transform="translate(-0.09 -0.394)"/></g></g><g transform="translate(16.17 9.24)"><g transform="translate(0 0)"><rect class="a" width="2" height="2" transform="translate(-0.17 -0.394)"/></g></g><g transform="translate(3.08 12.32)"><g transform="translate(0 0)"><rect class="a" width="2" height="2" transform="translate(-0.08 -0.474)"/></g></g><g transform="translate(6.16 12.32)"><g transform="translate(0 0)"><rect class="a" width="2" height="2" transform="translate(-0.16 -0.474)"/></g></g><g transform="translate(9.24 12.32)"><g transform="translate(0 0)"><rect class="a" width="2" height="2" transform="translate(-0.24 -0.474)"/></g></g><g transform="translate(13.09 12.32)"><g transform="translate(0 0)"><rect class="a" width="2" height="2" transform="translate(-0.09 -0.474)"/></g></g><g transform="translate(3.08 15.4)"><g transform="translate(0 0)"><rect class="a" width="2" height="1" transform="translate(-0.08 0.446)"/></g></g><g transform="translate(6.16 15.4)"><g transform="translate(0 0)"><rect class="a" width="2" height="1" transform="translate(-0.16 0.446)"/></g></g><g transform="translate(9.24 15.4)"><g transform="translate(0 0)"><rect class="a" width="2" height="1" transform="translate(-0.24 0.446)"/></g></g><g transform="translate(13.09 15.4)"><g transform="translate(0 0)"><rect class="a" width="2" height="1" transform="translate(-0.09 0.446)"/></g></g><g transform="translate(16.17 12.32)"><g transform="translate(0 0)"><rect class="a" width="2" height="2" transform="translate(-0.17 -0.474)"/></g></g></svg>