<svg xmlns="http://www.w3.org/2000/svg" width="547.516" height="155.028" viewBox="0 0 547.516 155.028">
  <g id="Group_1160" data-name="Group 1160" transform="translate(5738.853 -2796.931)">
    <g id="Group_1159" data-name="Group 1159">
      <path id="Path_289" data-name="Path 289" d="M899.273-307.741a36.154,36.154,0,0,0-36.02,33.644v111.435a9.949,9.949,0,0,0,9.95,9.949,9.949,9.949,0,0,0,9.949-9.949V-274.1h.114a16.227,16.227,0,0,1,16.007-13.745A16.227,16.227,0,0,1,915.281-274.1h-.032v49.891c0,4.989,4.458,9.033,9.957,9.033s9.949-4.037,9.956-9.021l.132-49.9A36.155,36.155,0,0,0,899.273-307.741Z" transform="translate(-6602.106 3104.672)" fill="#1b75bb"/>
      <path id="Path_290" data-name="Path 290" d="M951.529-152.713a36.154,36.154,0,0,0,36.021-33.644V-297.791a9.949,9.949,0,0,0-9.949-9.95,9.949,9.949,0,0,0-9.95,9.95v111.435h-.114a16.227,16.227,0,0,1-16.008,13.745,16.226,16.226,0,0,1-16.007-13.745h.031v-5.118c0-4.989-4.458-9.033-9.956-9.033s-9.949,4.037-9.957,9.021l-.131,5.13A36.155,36.155,0,0,0,951.529-152.713Z" transform="translate(-6602.369 3104.672)" fill="#e54e13"/>
    </g>
    <g id="Group_537" data-name="Group 537" transform="translate(-5553.877 2796.931)">
      <g id="Group_534" data-name="Group 534">
        <path id="Path_291" data-name="Path 291" d="M1088.9-219.839a3.279,3.279,0,0,1-1,2.4,3.273,3.273,0,0,1-2.4,1,3.3,3.3,0,0,1-3.225-2.092l-5.838-14.118h-33.727l-5.84,14.118a2.961,2.961,0,0,1-3.137,2.092,3.092,3.092,0,0,1-2.4-1,3.439,3.439,0,0,1-.915-2.4,3.737,3.737,0,0,1,.263-1.48L1056.3-282.15a3.363,3.363,0,0,1,3.311-2.353,3.219,3.219,0,0,1,3.226,2.353l25.708,60.918A2.748,2.748,0,0,1,1088.9-219.839Zm-43.751-18.649h28.934l-14.467-34.947Z" transform="translate(-1030.419 284.503)" fill="#0c0c23"/>
        <path id="Path_292" data-name="Path 292" d="M1087.887-221.76a20.116,20.116,0,0,1-8.018-5.142,3.185,3.185,0,0,1-.87-2,3.311,3.311,0,0,1,1.393-2.615,3.585,3.585,0,0,1,2.179-.784,3.216,3.216,0,0,1,2.527,1.22,13.368,13.368,0,0,0,5.534,3.747,21.357,21.357,0,0,0,7.626,1.307q6.1,0,9.151-2.093a6.605,6.605,0,0,0,3.139-5.489,6.179,6.179,0,0,0-3.052-5.229q-3.05-2.092-9.674-3.137-8.542-1.393-12.768-4.837a10.4,10.4,0,0,1-4.227-8.323,11.362,11.362,0,0,1,4.924-9.848,20.823,20.823,0,0,1,12.332-3.486,23.841,23.841,0,0,1,10.022,1.96,17.629,17.629,0,0,1,6.885,5.447,3.972,3.972,0,0,1,.7,2.006,2.658,2.658,0,0,1-1.393,2.352,2.79,2.79,0,0,1-1.656.437,4.005,4.005,0,0,1-3.052-1.307q-4.271-4.88-11.678-4.88a13.4,13.4,0,0,0-7.669,1.961,5.8,5.8,0,0,0-2.876,4.924,5.812,5.812,0,0,0,2.7,5.011q2.7,1.875,9.588,3.007,9.323,1.569,13.333,5.1A11.2,11.2,0,0,1,1117-233.7a11.466,11.466,0,0,1-2.4,7.146,15.555,15.555,0,0,1-6.667,4.88,25.4,25.4,0,0,1-9.674,1.742A29.757,29.757,0,0,1,1087.887-221.76Z" transform="translate(-1018.516 288.43)" fill="#0c0c23"/>
        <path id="Path_293" data-name="Path 293" d="M1116.678-274.929a4.691,4.691,0,0,1-1.351-3.4,4.449,4.449,0,0,1,1.394-3.4,4.788,4.788,0,0,1,3.4-1.306,4.682,4.682,0,0,1,3.312,1.306,4.454,4.454,0,0,1,1.4,3.4,4.622,4.622,0,0,1-1.4,3.4,4.617,4.617,0,0,1-3.4,1.4A4.478,4.478,0,0,1,1116.678-274.929Zm1,57.172a3.3,3.3,0,0,1-.96-2.441v-40.872a3.3,3.3,0,0,1,.96-2.44,3.3,3.3,0,0,1,2.439-.959,3.168,3.168,0,0,1,2.4.959,3.392,3.392,0,0,1,.914,2.44V-220.2a3.389,3.389,0,0,1-.914,2.441,3.164,3.164,0,0,1-2.4.959A3.3,3.3,0,0,1,1117.681-217.757Z" transform="translate(-1009.616 284.863)" fill="#0c0c23"/>
        <path id="Path_294" data-name="Path 294" d="M1166.587-265.292a23.187,23.187,0,0,1,8.715,8.759,24.541,24.541,0,0,1,3.18,12.375v20.48a3.2,3.2,0,0,1-.958,2.353,3.309,3.309,0,0,1-2.441.959,3.388,3.388,0,0,1-2.439-.915,3.154,3.154,0,0,1-.96-2.4v-5.229a21.569,21.569,0,0,1-7.755,6.58,22.511,22.511,0,0,1-10.371,2.4,23.019,23.019,0,0,1-11.983-3.18,22.964,22.964,0,0,1-8.455-8.715,24.83,24.83,0,0,1-3.094-12.332,24.541,24.541,0,0,1,3.181-12.375,23.15,23.15,0,0,1,8.715-8.759,24.3,24.3,0,0,1,12.332-3.181A24.313,24.313,0,0,1,1166.587-265.292Zm-3.356,36.907a16.946,16.946,0,0,0,6.318-6.491,18.727,18.727,0,0,0,2.31-9.281,18.741,18.741,0,0,0-2.31-9.283,17.313,17.313,0,0,0-6.318-6.536,17.169,17.169,0,0,0-8.977-2.4,17.4,17.4,0,0,0-9.02,2.4,17.2,17.2,0,0,0-6.361,6.536,18.729,18.729,0,0,0-2.311,9.283,18.714,18.714,0,0,0,2.311,9.281,16.836,16.836,0,0,0,6.361,6.491,17.623,17.623,0,0,0,9.02,2.354A17.388,17.388,0,0,0,1163.23-228.385Z" transform="translate(-1006.015 288.43)" fill="#0c0c23"/>
        <path id="Path_295" data-name="Path 295" d="M1209.63-265.928a18.759,18.759,0,0,1,7.712,7.626,24.286,24.286,0,0,1,2.79,11.983v22.659a3.2,3.2,0,0,1-.96,2.353,3.2,3.2,0,0,1-2.353.959,3.3,3.3,0,0,1-2.44-.959,3.2,3.2,0,0,1-.957-2.353V-246.32q0-7.756-4.314-11.809t-11.286-4.052a17.577,17.577,0,0,0-7.714,1.656,13.618,13.618,0,0,0-5.447,4.575,11.221,11.221,0,0,0-2,6.493v25.8a3.239,3.239,0,0,1-.914,2.4,3.246,3.246,0,0,1-2.4.915,3.386,3.386,0,0,1-2.439-.915,3.159,3.159,0,0,1-.96-2.4v-40.961a3.306,3.306,0,0,1,.96-2.44,3.3,3.3,0,0,1,2.439-.959,3.168,3.168,0,0,1,2.4.959,3.392,3.392,0,0,1,.914,2.44v2.963a20.333,20.333,0,0,1,6.973-5.055,21.531,21.531,0,0,1,8.888-1.83A23.331,23.331,0,0,1,1209.63-265.928Z" transform="translate(-994.764 288.413)" fill="#0c0c23"/>
      </g>
      <g id="Group_536" data-name="Group 536" transform="translate(2.266 86.092)">
        <g id="Group_535" data-name="Group 535">
          <path id="Path_296" data-name="Path 296" d="M1042.3-149.119a19.883,19.883,0,0,1-7.364-7.364,20.216,20.216,0,0,1-2.7-10.327,3.3,3.3,0,0,1,.958-2.44,3.3,3.3,0,0,1,2.442-.959,3.3,3.3,0,0,1,2.439.959,3.309,3.309,0,0,1,.958,2.44,13.984,13.984,0,0,0,1.83,7.1,13.476,13.476,0,0,0,4.968,5.011,13.42,13.42,0,0,0,6.885,1.829,13.166,13.166,0,0,0,6.886-1.874,13.471,13.471,0,0,0,4.924-5.053,14.1,14.1,0,0,0,1.785-7.016v-45.145a3.234,3.234,0,0,1,1-2.44,3.346,3.346,0,0,1,2.4-.957,3.318,3.318,0,0,1,2.442.957,3.315,3.315,0,0,1,.957,2.44v45.145a20.232,20.232,0,0,1-2.7,10.327,19.9,19.9,0,0,1-7.364,7.364,20.235,20.235,0,0,1-10.327,2.7A20.4,20.4,0,0,1,1042.3-149.119Z" transform="translate(-1032.239 215.353)" fill="#0c0c23"/>
          <path id="Path_297" data-name="Path 297" d="M1117.4-198.058a3.167,3.167,0,0,1,.957,2.4V-154.7a3.311,3.311,0,0,1-.957,2.441,3.307,3.307,0,0,1-2.442.959,3.155,3.155,0,0,1-2.4-.959,3.39,3.39,0,0,1-.915-2.441v-2.963a20.327,20.327,0,0,1-6.973,5.056,21.561,21.561,0,0,1-8.889,1.83,23.322,23.322,0,0,1-11.112-2.615,18.746,18.746,0,0,1-7.713-7.626A24.267,24.267,0,0,1,1074.169-173v-22.659a3.2,3.2,0,0,1,.959-2.353,3.2,3.2,0,0,1,2.353-.959,3.314,3.314,0,0,1,2.442.959,3.209,3.209,0,0,1,.959,2.353V-173q0,7.756,4.313,11.808t11.286,4.052a17.561,17.561,0,0,0,7.713-1.655,13.581,13.581,0,0,0,5.447-4.577,11.21,11.21,0,0,0,2.006-6.491v-25.8a3.24,3.24,0,0,1,.915-2.4,3.237,3.237,0,0,1,2.4-.915A3.4,3.4,0,0,1,1117.4-198.058Z" transform="translate(-1021.966 219.366)" fill="#0c0c23"/>
          <path id="Path_298" data-name="Path 298" d="M1152.441-196.78a18.78,18.78,0,0,1,7.714,7.626,24.308,24.308,0,0,1,2.789,11.983v22.66a3.2,3.2,0,0,1-.96,2.353,3.2,3.2,0,0,1-2.352.959,3.3,3.3,0,0,1-2.441-.959,3.2,3.2,0,0,1-.958-2.353v-22.66q0-7.754-4.313-11.808t-11.286-4.053a17.574,17.574,0,0,0-7.713,1.656,13.594,13.594,0,0,0-5.447,4.575,11.213,11.213,0,0,0-2.006,6.493v25.8a3.235,3.235,0,0,1-.915,2.4,3.238,3.238,0,0,1-2.4.916,3.387,3.387,0,0,1-2.44-.916,3.156,3.156,0,0,1-.957-2.4v-40.961a3.308,3.308,0,0,1,.957-2.44,3.308,3.308,0,0,1,2.44-.959,3.164,3.164,0,0,1,2.4.959,3.394,3.394,0,0,1,.915,2.44v2.963a20.322,20.322,0,0,1,6.973-5.055,21.529,21.529,0,0,1,8.889-1.83A23.33,23.33,0,0,1,1152.441-196.78Z" transform="translate(-1011.041 219.263)" fill="#0c0c23"/>
          <path id="Path_299" data-name="Path 299" d="M1172.208-153.961a22.861,22.861,0,0,1-8.5-8.715,24.818,24.818,0,0,1-3.1-12.333,26.068,26.068,0,0,1,2.963-12.5,22.009,22.009,0,0,1,8.192-8.671,22.423,22.423,0,0,1,11.766-3.137,21.72,21.72,0,0,1,17.692,8.366,2.672,2.672,0,0,1,.7,1.83,2.983,2.983,0,0,1-1.484,2.44,2.93,2.93,0,0,1-1.654.522,3.49,3.49,0,0,1-2.527-1.306,17.786,17.786,0,0,0-5.752-4.314,16.519,16.519,0,0,0-6.972-1.438,15.949,15.949,0,0,0-8.541,2.31,15.343,15.343,0,0,0-5.794,6.493,21.1,21.1,0,0,0-2.049,9.411,19.612,19.612,0,0,0,2.179,9.283,16.208,16.208,0,0,0,6.1,6.491,17.1,17.1,0,0,0,8.978,2.354q6.969,0,11.241-3.747a3.61,3.61,0,0,1,2.353-.959,3,3,0,0,1,1.917.7,3.057,3.057,0,0,1,1.22,2.353,2.489,2.489,0,0,1-.87,1.917q-6.279,5.84-15.861,5.838A23.587,23.587,0,0,1,1172.208-153.961Z" transform="translate(-1000.786 219.28)" fill="#0c0c23"/>
          <path id="Path_300" data-name="Path 300" d="M1225.338-154.069a3.505,3.505,0,0,1,.87,2.44,3.063,3.063,0,0,1-1.046,2.353,3.721,3.721,0,0,1-2.615.959h-1.83a15.64,15.64,0,0,1-8.281-2.222,15.561,15.561,0,0,1-5.707-6.013,17.766,17.766,0,0,1-2.048-8.584v-23.269h-5.665a3,3,0,0,1-2.222-.828,2.777,2.777,0,0,1-.828-2.048,2.888,2.888,0,0,1,.828-2.135,3,3,0,0,1,2.222-.828h5.665v-13.508a3.393,3.393,0,0,1,.915-2.44,3.162,3.162,0,0,1,2.4-.959,3.31,3.31,0,0,1,2.44.959,3.3,3.3,0,0,1,.957,2.44v13.508h9.849a3.007,3.007,0,0,1,2.222.828,2.892,2.892,0,0,1,.828,2.135,2.781,2.781,0,0,1-.828,2.048,3,3,0,0,1-2.222.828h-9.849v23.269a10.311,10.311,0,0,0,2.616,7.277,8.723,8.723,0,0,0,6.711,2.832h2.353A2.928,2.928,0,0,1,1225.338-154.069Z" transform="translate(-992.124 216.382)" fill="#0c0c23"/>
          <path id="Path_301" data-name="Path 301" d="M1226.857-205.779a4.7,4.7,0,0,1-1.35-3.4,4.453,4.453,0,0,1,1.393-3.4,4.788,4.788,0,0,1,3.4-1.306,4.688,4.688,0,0,1,3.313,1.306,4.454,4.454,0,0,1,1.394,3.4,4.621,4.621,0,0,1-1.394,3.4,4.628,4.628,0,0,1-3.4,1.394A4.479,4.479,0,0,1,1226.857-205.779Zm1,57.172a3.3,3.3,0,0,1-.959-2.441v-40.872a3.3,3.3,0,0,1,.959-2.44,3.306,3.306,0,0,1,2.44-.959,3.167,3.167,0,0,1,2.4.959,3.4,3.4,0,0,1,.915,2.44v40.872a3.4,3.4,0,0,1-.915,2.441,3.162,3.162,0,0,1-2.4.959A3.3,3.3,0,0,1,1227.859-148.607Z" transform="translate(-984.887 215.713)" fill="#0c0c23"/>
          <path id="Path_302" data-name="Path 302" d="M1252.013-153.918a22.6,22.6,0,0,1-8.67-8.671,24.735,24.735,0,0,1-3.137-12.42,24.979,24.979,0,0,1,3.137-12.461,22.514,22.514,0,0,1,8.67-8.715,24.733,24.733,0,0,1,12.419-3.137,24.493,24.493,0,0,1,12.375,3.137,22.916,22.916,0,0,1,8.671,8.715,24.713,24.713,0,0,1,3.182,12.461,24.722,24.722,0,0,1-3.139,12.42,22.6,22.6,0,0,1-8.67,8.671,24.739,24.739,0,0,1-12.42,3.136A24.732,24.732,0,0,1,1252.013-153.918Zm21.483-5.317a16.648,16.648,0,0,0,6.275-6.491,19.011,19.011,0,0,0,2.267-9.283,19.194,19.194,0,0,0-2.267-9.367,16.668,16.668,0,0,0-6.275-6.493,17.556,17.556,0,0,0-9.063-2.353,17.618,17.618,0,0,0-9.019,2.353,16.859,16.859,0,0,0-6.362,6.493,18.881,18.881,0,0,0-2.309,9.367,18.7,18.7,0,0,0,2.309,9.283,16.839,16.839,0,0,0,6.362,6.491,17.619,17.619,0,0,0,9.019,2.354A17.557,17.557,0,0,0,1273.5-159.235Z" transform="translate(-981.286 219.28)" fill="#0c0c23"/>
          <path id="Path_303" data-name="Path 303" d="M1319.809-196.78a18.775,18.775,0,0,1,7.712,7.626,24.279,24.279,0,0,1,2.789,11.983v22.66a3.2,3.2,0,0,1-.958,2.353,3.2,3.2,0,0,1-2.354.959,3.3,3.3,0,0,1-2.439-.959,3.19,3.19,0,0,1-.959-2.353v-22.66q0-7.754-4.314-11.808T1308-193.031a17.579,17.579,0,0,0-7.713,1.656,13.606,13.606,0,0,0-5.447,4.575,11.219,11.219,0,0,0-2,6.493v25.8a3.235,3.235,0,0,1-.915,2.4,3.241,3.241,0,0,1-2.4.916,3.381,3.381,0,0,1-2.439-.916,3.154,3.154,0,0,1-.96-2.4v-40.961a3.305,3.305,0,0,1,.96-2.44,3.3,3.3,0,0,1,2.439-.959,3.167,3.167,0,0,1,2.4.959,3.393,3.393,0,0,1,.915,2.44v2.963a20.334,20.334,0,0,1,6.971-5.055,21.544,21.544,0,0,1,8.891-1.83A23.347,23.347,0,0,1,1319.809-196.78Z" transform="translate(-970.035 219.263)" fill="#0c0c23"/>
        </g>
      </g>
    </g>
  </g>
</svg>
