<svg xmlns="http://www.w3.org/2000/svg" width="24.41" height="30.552" viewBox="0 0 24.41 30.552">
  <g id="Icon_ionic-ios-notifications-outline" data-name="Icon ionic-ios-notifications-outline" transform="translate(-6.775 -3.93)">
    <path id="Path_103" data-name="Path 103" d="M20.857,28.336a.989.989,0,0,0-.97.779,1.914,1.914,0,0,1-.382.832,1.443,1.443,0,0,1-1.229.451,1.467,1.467,0,0,1-1.229-.451,1.914,1.914,0,0,1-.382-.832.989.989,0,0,0-.97-.779h0a1,1,0,0,0-.97,1.214,3.412,3.412,0,0,0,3.551,2.833,3.405,3.405,0,0,0,3.551-2.833,1,1,0,0,0-.97-1.214Z" transform="translate(0.682 2.1)" fill="#1b75bb"/>
    <path id="Path_104" data-name="Path 104" d="M30.878,26.556c-1.176-1.55-3.49-2.459-3.49-9.4,0-7.125-3.146-9.988-6.078-10.675-.275-.069-.473-.16-.473-.451V5.809A1.873,1.873,0,0,0,19,3.93h-.046a1.873,1.873,0,0,0-1.833,1.878V6.03c0,.283-.2.382-.473.451-2.94.695-6.078,3.551-6.078,10.675,0,6.941-2.314,7.842-3.49,9.4A1.516,1.516,0,0,0,8.3,28.985H29.687A1.517,1.517,0,0,0,30.878,26.556ZM27.9,27H10.093a.335.335,0,0,1-.252-.557,9.251,9.251,0,0,0,1.6-2.55,17.3,17.3,0,0,0,1.092-6.735,11.711,11.711,0,0,1,1.6-6.628,4.9,4.9,0,0,1,2.955-2.108,2.676,2.676,0,0,0,1.42-.8.6.6,0,0,1,.909-.015,2.767,2.767,0,0,0,1.436.817,4.9,4.9,0,0,1,2.955,2.108,11.711,11.711,0,0,1,1.6,6.628A17.3,17.3,0,0,0,26.5,23.891a9.357,9.357,0,0,0,1.642,2.589A.316.316,0,0,1,27.9,27Z" transform="translate(0 0)" fill="#1b75bb"/>
  </g>
</svg>
