<svg xmlns="http://www.w3.org/2000/svg" width="25.224" height="28.541" viewBox="0 0 25.224 28.541">
  <path id="Icon_awesome-user" data-name="Icon awesome-user" d="M11.612,13.271A6.635,6.635,0,1,0,4.976,6.635,6.635,6.635,0,0,0,11.612,13.271Zm4.645,1.659h-.866a9.024,9.024,0,0,1-7.558,0H6.967A6.969,6.969,0,0,0,0,21.9v2.156a2.489,2.489,0,0,0,2.488,2.488H20.735a2.489,2.489,0,0,0,2.488-2.488V21.9A6.969,6.969,0,0,0,16.257,14.929Z" transform="translate(1 1)" fill="none" stroke="#fff" stroke-width="2"/>
</svg>
