<svg xmlns="http://www.w3.org/2000/svg" width="751.847" height="730.166" viewBox="0 0 751.847 730.166"><defs><style>.a{opacity:0.4;}.b{fill:#f6f6f6;}</style></defs><g class="a" transform="translate(0 0.04)"><g transform="translate(0 -0.039)"><path class="b" d="M135.59,339.55c-2.231-1.544-3.356-3.2-1.225-5.8,1.527-1.879,1.376-3.993-.285-5.872-4.639-5.235-9.286-10.461-15.024-14.546-4.513-3.2-9.5-3.1-14,.453-2.961,2.34-5.805,4.631-9.756,5.151-2.517.336-2.517,2.928-3.154,4.74-1.393,4.027-3.188,7.726-6.518,10.545s-7.189,3.565-11.207,4.413-5.637,5.671-10.067,6.3c-4.631.654-7.374.839-10.4-4.538-1.049-1.854-2.29-3.037-3.213.134-.461,1.611-1.728,1.074-2.642.839a3.246,3.246,0,0,1-2.718-3.507c.05-2.139.294-4.287.52-6.426.579-5.453,1.233-10.905,1.762-16.358.252-2.609,1.837-3.809,3.783-5.428,4.379-3.641,8.859-4.194,14.169-3.079,2.718.57,7.214-3.179,7.441-6.032.235-2.986-1.393-5.31-4.371-6.4-2.416-.881-3.356-2.617-3.6-5.151S66.76,286,68.2,285.1c4.1-2.626,8.884-3.75,13.212-5.872,5.5-2.743,10.763-5.713,13.07-11.979a17.388,17.388,0,0,1,1.929-3.355c2.961-4.547,6.711-7.55,12.583-6.191,1.292.285,3.607.914,3.087-1.611-.386-1.879,3.054-4.966-1.678-5.73-2.936-.47-4.119-2.517-3.356-4.706.159-.478.067-1.325.763-1.2,4.027.721,3.59-3.968,6.174-5.033.688-.285.713-1.342.252-2.022s-1.166-.134-1.736,0c-7.5,1.384-11.744-1.132-13.724-8.942-2.768-11.048-2.131-19.915,10.276-27.272,2.273-1.309,4.5-2.668,5.822-5.033l.94-.478c0-.2-.042-.4-.059-.6-.075,0-.2,0-.218.059-.176.361,0,.495.352.545-.629-.394-1.091-.47-.965.52-2.634.243-4.06,2.332-5.872,3.842-.5.126-1.04.537-1.51.084-.839-.839.227-1.057.554-1.4a108.1,108.1,0,0,0,12.533-15.511,43.319,43.319,0,0,0,4.194-8.313c2.2-5.78,5.31-11.14,6.87-17.247,2.139-8.389,7.911-12.441,16.534-12.457a10.2,10.2,0,0,0,6.25-1.955,5.107,5.107,0,0,1,6.552-.143c1.6,1.057,4.547.839,6.619,2.148,4.832,3.012,9.84,5.7,14.94,8.238a19.806,19.806,0,0,0,8.389,1.938c4.84.151,9.664-.646,14.521-.067,7.365.839,11.887,7.03,10.553,14.378-.252,1.376-1.527,3.431-.21,4.043s1.921-1.812,2.986-2.743c1.611-1.393,1.946-2.835.394-4.647-.981-1.141-2.374-2.71-.159-4.01,1.9-1.116,4.194-.193,4.715,1.275,1.015,2.835,2.114,1.619,3.649.839,3.163-1.585,6.375-3.087,9.614-4.513,1.267-.554,2.819-1.376,3.976-1.074,4.631,1.233,7.6-1.476,10.6-4.052,4.035-3.465,8.322-6.032,13.925-5.629,3,.21,4.723-1,4.79-4.438.059-2.97,2.131-4.471,5.033-4.891,8.33-1.174,8.271-1.2,8.674-9.681.126-2.634-.621-5.109-.889-7.667-.117-1.065-.336-2.131-.352-3.2-.059-3.2.243-6.375,3.356-8.179,3.3-1.9,6.51-.663,9.471.99a18.236,18.236,0,0,1,8.322,10.192c1.728-4.413,2.206-8.842,5.8-11.744,4.035-3.255,7.768-2.072,11.417.587.965-1.275.185-2.055-.336-2.768-3.439-4.715-2.273-10.176,2.911-13.212a21.954,21.954,0,0,1,8.791-2.986c1.527-.168,2.424-.621,1.678-2.148-4.807-9.731,1.3-18.321,9.706-23.824,4.362-2.861,8.573-6.183,14.16-6.543,1.753-.117,2.047-1.678,2.3-3.079.663-3.59,1.074-7.24,1.946-10.771,1.56-6.292,6.375-8.129,12.323-7.969a3.708,3.708,0,0,1,3.683,2.29,11.988,11.988,0,0,1-5.872,1.46c-2.819.126-3.355,1.837-3.616,3.951-.5,4.6-.965,9.228-1.334,13.808a4.7,4.7,0,0,1-2.953,4.144c-4.647,2.382-9.815,3.087-14.7,4.689-8.221,2.693-11.132,7.349-9.6,15.821.3,1.678.6,3.356.839,5.092.528,4.111.059,4.74-4.052,5.813-3.213.839-6.426,1.678-9.614,2.626-3.356,1-3.758,2.1-1.678,5.033,1.535,2.2,3.355,4.194,5.033,6.283s3.6,4.329,4.077,7.214c.4,2.4.352,4.673-1.678,6.493s-4.312,1.342-6.594.352a22.575,22.575,0,0,1-9.555-7.407c-1.518-2.089-3.028-2.072-4.337.176a12.34,12.34,0,0,0-1.233,5.3c-.956,11.392-1.25,22.792.461,34.151a48.235,48.235,0,0,0,1.678,6.535c.386,1.275,1.518,2.45-.084,3.691s-3.356,2.03-5.033,1.267c-2.273-1.007-4.354-2.173-4.555-5.478-.369-6.224.495-12.583-.931-18.673-1.9-8.129-4.9-15.939-7.919-23.69-1.057-2.71-3.28-3.859-6.711-3.263,3.423,7.55-1.317,16.207,3.733,23.547a2.189,2.189,0,0,1,.352.9c.512,2.835,1.5,5.813-.973,8.2s-5.092.344-7.458-.5c-2.064-.738-3.9-2.148-5.872-3.246-.914.621-.47,1.4-.344,2.064.973,5.117.57,5.688-4.287,7.072-5.7,1.627-11.61,2.2-17.39,3.431-8.783,1.887-15.939,7.256-23.9,10.981-6.87,3.23-10.687,9.077-14.362,15.175a40.266,40.266,0,0,1-7.55,9.6c-5.587,4.941-11.551,4.731-16.87-.52a27.91,27.91,0,0,1-7.55-12.919c-1.418-5.394.755-8.565,6.459-8.942,4.077-.268,8.179-.193,12.264-.21,3.288,0,5.545-1.728,5.6-4.4.05-2.827-2.517-5.168-5.637-5.193-6.543-.059-13.095.461-19.6-1.065a23.128,23.128,0,0,1-10.905-5.914,10.466,10.466,0,0,1-1.367-1.359c-5.226-7.08-12.256-6.812-19.705-4.874-2.768.713-4.907,2.2-5.8,5.033-.47,1.493-1.384,1.728-2.718,1.451-3.356-.7-6.3,1.242-6.124,4.639.327,6.325-2.173,11.048-7.1,14.655-2.768,2.03-3.3,5.109-4.119,8.045-1.736,6.241-3.356,12.583-9.093,16.543-2.743,1.9-5.57,3.649-8.389,5.436-4.522,2.869-6.619,7.1-7.189,12.315-.126,1.183.226,2.349-1.091,3.666s1.569,3.356,2.257,3.649c2.852,1.233,2.7,3.356,1.971,5.3-1.015,2.726.839,4.4,2.064,5.872.923,1.158,2.819-.21,3.926-1.191,1.846-1.636,3.456-3.54,5.3-5.176,3.892-3.431,7.147-2.827,9.63,1.678,1.678,3.087,2.047,6.518,2.517,9.916.084.587-.126,1.426.789,1.476.6,0,.839-.587,1.065-1.074,2.181-4.3,4.32-8.632,6.585-12.894.839-1.535-.042-2.693-.478-3.951-1.82-5.344-2.953-10.713-1.678-16.4s4.194-9.865,9.479-12.189a6.055,6.055,0,0,0,4.01-4.857c.512-2.894,2.206-5.344,3.632-7.86,1.283-2.282,3.037-1.82,4.866-.772.084.059.134.185.218.235,4.706,3.02,5.411,6.8,3.356,12.021a80.432,80.432,0,0,0-4.916,16.979,13.423,13.423,0,0,0-.277,2.877c.117,1.879.688,2.9,3.062,2.248a38.941,38.941,0,0,1,10.5-1.6,34.925,34.925,0,0,1,4.194.134c5.436.688,6.711,2.517,5.26,7.642-.839,2.877-2.072,5.637-3.054,8.473-.839,2.466-2.886,2.215-4.815,2.156-4.421-.134-4.4-.151-3.85,4.085.26,2.022.57,4.077-.327,6.032-.52,1.132-1.3,2.047-2.71,1.862a2.29,2.29,0,0,1-2.139-2.349c-.176-1.569-.428-3.356-2.156-4.077-1.258-.545-2.743-1.334-3.968-.411-1.736,1.317-3.079,3.037-2.684,5.511a37.3,37.3,0,0,0,2.76,8.531c.973,2.324,1.04,3.607-2.114,3.28-2.24-.235-4.522,0-6.778-.05a15.1,15.1,0,0,0-11.149,4.32c-1.166,1.091-1.955,1.594-3.507.436-2.777-2.064-6.308-1.955-9.521-2.743-1.049-.252-2.114-.411-3.137-.738-1.627-.5-3.246-1.929-4.664.428-.839,1.4-2.995,2.064-1.552,4.53.629,1.074-.772,2.366-2.366,2.248-2.81-.218-4.454,1.46-6.174,3.356-4.035,4.463-8.246,8.775-12.373,13.162A22.951,22.951,0,0,1,79.528,286a23.1,23.1,0,0,0-6.711,2.148c-1.8.956-2.517,1.787-.369,3.288a28,28,0,0,1,5.713,5.159c2.517,3.037,2.34,6.208,1.091,9.681-1.8,4.966-4.639,7.609-10.461,6.87a29.864,29.864,0,0,0-14.034,1.242c-2.03.738-3.473,1.443-2.24,4.32,1.678,3.817,1.267,8.053.789,12.113-.185,1.577-.176,2.34,1.627,2.517a7.273,7.273,0,0,1,5.587,3.934c.94,1.678,1.955,1.485,3.356.755a31.272,31.272,0,0,1,4.4-1.955c7.609-2.575,12.885-7.55,16.392-14.8,4.194-8.632,12.29-11.694,20.913-14.026,10.067-2.718,17.247,1.283,23.145,9.085,2.324,3.079,5.033,5.872,7.55,8.808.973,1.132,1.988,1.946,3.892.94-2.726-2.944-5.394-5.788-8.02-8.682a35.325,35.325,0,0,1-5.277-7.3c-.629-1.2-.721-2.189.386-3.146,2.919-2.517,6.3-4.3,10.067-2.844,8.9,3.481,16.442,8.833,21.039,17.541,1.334,2.517,2.282,5.226-.6,7.55a1.5,1.5,0,0,0-.243,2.03c1.149,2.3,2.257,4.622,3.414,6.921.721,1.434,1.51,1.166,2.4.084,2.181-2.659,1.871-5.746,1.124-8.64-.839-3.288.654-5.4,2.735-7.349,2.7-2.517,5.033-1.728,5.8,1.846l.092-.076c-.839-.629-1.032.235-1.393.679l.1-.059c-.445.26-1.376-.428-1.367.7v-.05a3.473,3.473,0,0,0-4.194,1.988c-.68,1.426.956,2.19,1.678,3.171.067.084.159.151.227.235,1.476,1.9,5.562,2.861,3.892,5.872-3.1,5.6-8.632,7.76-12.86,5.73-5.344-2.575-8.146-7.122-9.228-12.818a10.444,10.444,0,0,1-.2-3.221c.78-6-2.282-9.731-7.147-12.457-2.9-1.678-5.8-3.288-8.708-4.9-.654-.369-1.451-.7-2.055,0-.445.537-.168,1.208.042,1.829a9.051,9.051,0,0,0,2.592,3.641,147.946,147.946,0,0,1,10.612,11.266c1.376,1.594,1.887,2.785-.839,3.708-2.164.73-3.75,2.148-3.641,4.983.134,3.355-2.659,4.194-5.151,5.142ZM121.4,231.653l-.906.2q-.4,7.827-.839,15.662a3.221,3.221,0,0,0,1.283,2.466c3.456,3.54,10.26,4.27,14.882,1.443,2.013-1.233,3.909-2.668,6.2-3.4,1.208-.378,2.34-.537,2.81,1.082.973,3.406,3.708,1.98,5.579,1.678,2.03-.361.763-2.265.638-3.515s-.453-2.315-.6-3.49c-.839-6.56,1.351-9.63,7.953-10.067,3.859-.268,4.975-2.517,5.344-5.495.411-3.356,1.535-5.83,5.3-6.124.8-.067,1.267-.487,1.225-1.174-.05-.948-.923-.7-1.5-.671a25.879,25.879,0,0,0-10.637,2.257,3.968,3.968,0,0,1-3.632,0c-6.115-2.6-8.213-7.441-6.208-13.883,1.745-5.6,5.151-10.369,7.449-15.687,1.04-2.416,2-4.84.394-8.322-1.451,5.99-5.033,9.4-9.295,12.264a15.025,15.025,0,0,0-3.221,3.137c-3.775,4.706-3.59,9.773.621,16.719s6.493,10.6-2.282,16.576c-1.133.772-.78,2.064-.495,2.944.428,1.359,1.065,0,1.678-.143a1.5,1.5,0,0,1,1.988,1.158c.235,1.015-.369,1.619-1.409,1.728a9.874,9.874,0,0,0-5.461,2.517c-1.468,1.267-2.785,2.718-4.345,3.842-3.691,2.668-6.979,1.762-9.312-2.055C122.4,239.689,121.011,235.956,121.4,231.653Zm91.035-53.336c-5.57,3.07-11.006,2.651-16.526.327a31.3,31.3,0,0,0-4.572-1.493c-1.493-.369-1.736.461-1.166,1.636,1.678,3.356,3.465,6.711,6.552,9.01,1.955,1.434,4.639,2.8,6.753,1.342C207.34,186.462,210.083,182.562,212.432,178.317Zm2.089-2.223.5-.562c-.143-.092-.327-.294-.419-.26a3.716,3.716,0,0,0-.646.47Zm1.166-1.627c-.084-.076-.168-.218-.227-.21a2.207,2.207,0,0,0-.428.2c.067.075.151.218.21.21A2.289,2.289,0,0,0,215.687,174.466Z" transform="translate(-7.309 -6.07)"/><path class="b" d="M730.174,205.913l13.2,22.868c.587,1.015,1.4,1.955.923,3.255a.654.654,0,0,1-1.04.327c-1.216-.8-2.9-1.292-3.02-3.037a8.531,8.531,0,0,0-1.2-4.547c-.973,1.426-.537,2.517-.436,3.616a78.862,78.862,0,0,1,0,17.4c-.227,1.745-.747,2.97-2.634,3.582s-3.314.839-4.949-.738a76.358,76.358,0,0,1-11.258-14.42c-5.033-7.869-9.672-15.939-13-24.764a8.842,8.842,0,0,1-.6-5.319,15.662,15.662,0,0,0,0-6.711c-1.56-7.776.176-15.419,1.057-23.094.545-4.782.78-9.572-.512-14.311-1.56.109-1.569,1.225-1.971,2.223-1.493,3.725-4.866,4.605-7.995,2.215-3.356-2.592-4.446-2.24-5.033,1.921-.78,5.62-.47,11.115,1.98,16.4,1.611,3.465,1.032,4.832-2.257,6.828a27.767,27.767,0,0,1-11.241,3.7c-9.177,1.074-15.1,6.6-20.234,13.514a49.445,49.445,0,0,1-3.465,4.194c-3.691,4.094-3.708,4.077-7.768-.075.2,5.411.143,10.52-1.267,15.477-.327,1.158.151,1.678,1.258,2.114,13.5,5.788,20.645,16.543,23.547,30.51a22.566,22.566,0,0,1-.939,12.457,12.842,12.842,0,0,0-.361,6.912c1.753,9.7.26,18.791-5.293,27.1-1.468,2.2-3.121,3.674-5.872,3.809s-5.293,1.72-7.944,2.559c-1.426.453-1.25,1.527-1.258,2.6a38.885,38.885,0,0,1-1.317,11.5c-.52,1.678-1.275,2.626-3.356,2.71-4.194.159-5.31,1.812-4.337,5.73,1.023,4.127,1.132,8.607,6.77,10.067a5.579,5.579,0,0,1,4.194,7.214,5.083,5.083,0,0,0,.1,1.577A6.711,6.711,0,0,1,644,360.451a15.855,15.855,0,0,1-11.518-19.957c.839-3.02-.159-4.815-1.678-6.912a1.913,1.913,0,0,0-2.173-.973c-3.708,1.183-7.483.26-11.216.461-1.166.067-2.517-.185-3.146,1.107s.3,2.3.965,3.221a59.275,59.275,0,0,1,5.033,8.624c2.642,5.453,2.517,11.3,2.122,17.088a8.682,8.682,0,0,0,3.246,7.911,41.209,41.209,0,0,1,4.043,4.194c4.933,5.553,5.453,12.038,2.424,18.816-6.711,14.94-18.64,24.646-31.877,33.245a8.64,8.64,0,0,1-8.926.478c-4.823-2.441-9.278-1.887-13.724.8-1.938,1.166-3.976,2.139-5.872,3.3-3.356,2.022-3.356,2.517-.352,4.975,4.723,3.909,9.538,7.734,12.81,13.087a13.968,13.968,0,0,1,2.064,9.546,3.515,3.515,0,0,1-.948,2.315c-2.072,1.9-3.5,3.725-3.507,7.063,0,2.517-3.356,3.918-5.99,4.689-2.307.663-4.874.839-4.882,4.3,0,1.132-1.242,1.552-2.517,1.5a8.47,8.47,0,0,1-7.13-4.287c-1.913-2.936-2.324-6.443-3.649-9.6-.73-1.736-1.216-3.632-2.693-4.991a2.449,2.449,0,0,0-1.049,2.366c.084,2.81-.092,5.31-3.507,6.224-.973.26-4.077,9.228-3.607,10.025a5.411,5.411,0,0,0,1.678,1.46,36.2,36.2,0,0,1,9.63,9.79c.713,1.1,1.326,1.5,2.517.688.629-.436,1.451-1.342,2.231-.369.612.772,0,1.619-.419,2.366s-.738,1.317-1.183,2.114c1.124.9,2.944.713,3.674,2.2l.512,1.317c-.042.419-.092.839-.143,1.258a6.5,6.5,0,0,1-.52,1.317l-.4.579-1.1,1.25c-4.5,1.527-6.333.981-9.228-3.2-1.451-2.114-2.978-4.27-3.532-6.845a11.92,11.92,0,0,0-5.738-7.768c-5.1-3.238-6.451-8.078-5.654-13.7.621-4.371,3.9-8.808,3.246-12.583-.7-3.943-2.995-8.011-3.96-12.239-.495-2.173-.688-4.421-2.156-6.25a3.993,3.993,0,0,0-2.038,2.517,54.057,54.057,0,0,1-2.307,4.949c-2.794,5.319-6.308,6.124-11.207,2.676-1.007-.7-.839-1.594-.78-2.575.084-3.263,1.384-6.283,1.812-9.479.126-.956.579-1.9-.654-2.517-2.81-1.334-4.194-3.859-5.486-6.51-1.334-2.793-2.684-5.579-4.027-8.389,1.183-.436.654-1.133.277-1.8,2.668-.654,3.775,1.216,4.6,3.112a18.311,18.311,0,0,1,1.149,4.756c.562,3.809,2.1,6.711,6.216,7.625,2.642.6,3.666,2.332,2.936,5.033-.277,1.049-.252,2.29,1.132,2.642s1.678-.713,2.03-1.829c1.166-3.355,6.174-5.469,9.572-4,2.013.839.839,2.189,0,2.986-2.055,1.929-1.535,3.037.889,3.834a5.679,5.679,0,0,1,3.641,3.7c1.275,3.305,2.844,6.493,4.144,9.79.755,1.9,1.527,1.753,2.592.352.193-.252.336-.554.554-.839,3.154-3.574,6.183-3.465,9,.378,2.45,3.356,3.783,7.214,5.092,11.073.7,2.072,1.493,2.8,3.448,1.116,2.282-1.971,4.74-3.725,6.543-6.191,2.684-3.674,2.995-7.047.3-10.7-2.919-3.968-6.325-7.55-9.387-11.468-4.262-5.394-4.1-7.315.671-12.315,2.777-2.9,6.3-4.362,10.109-5.36,5.8-1.51,12.013-1.745,17.34-4.723,12.231-6.829,22.65-15.595,28.639-28.656,2.206-4.79,1.594-9.177-2.106-13.061a28.433,28.433,0,0,0-1.854-2.231c-5.872-5.033-6.157-11.551-4.815-18.455a31.719,31.719,0,0,0,.419-3.2c.168-1.678.839-3.624.31-5.092-.713-1.963-2.953-.461-4.48-.906-9.026-2.626-11.82-4.488-7.265-14.219a21.376,21.376,0,0,1,3.07-4.882c4.387-5.134,10.855-4.572,14.261,1.426.755,1.325,1.216,1.627,2.567,1a16.283,16.283,0,0,1,10.654-1.384c.621.134,1.544.319,1.778-.327,1.166-3.2,4.345-4.715,6.048-7.441,1.971-3.154,2.1-6.711,2.257-10.276a12.675,12.675,0,0,1,4.5-9.236,11,11,0,0,1,1.426-1.309c11.811-7.122,12.214-18.9,12.583-30.711a6.066,6.066,0,0,0-.839-3.716,4.452,4.452,0,0,1-.369-4.261,25.435,25.435,0,0,0,.923-8.943c-.168-3.2-.839-5.973-3.993-7.885-2.668-1.619-3.985-4.723-5.981-7.114-1.678-2.055-3.607-3.28-6.35-3.07a23.918,23.918,0,0,1-3.548-.1c-4.7-.378-5.788-2.064-4.371-6.636.713-2.307,2.341-4.085,3.54-6.107,1.846-3.121,2.609-6.317,1.325-9.848s-.344-6.375,2.231-8.8c8.171-7.718,17.726-13.573,26.953-19.873a9.03,9.03,0,0,1,4.656-1.124c2.148-.151,4.312-.235,6.434-.562,3.934-.587,4.522-1.56,3.431-5.235-1.3-4.379-1.585-8.758.948-12.768,2.643-4.194,8.456-6,14.11-4.253,2.819.839,3.137.075,2.617-2.408a26.706,26.706,0,0,1-.461-5.117c0-2.282,1.141-4.052,3.355-4.4,2.517-.394,5.218.1,6.048,3.02,2.76,9.714,4.194,19.512,1.443,29.529-2.416,8.917-3.582,17.918-1.267,27.071,1.636,6.476,5.126,12.021,8.884,17.4,1.846,2.642,3.825,5.159,4.6,8.389a3.223,3.223,0,0,0,2.928,2.852c1.141-9.848,2.81-19.63-.646-29.361Z" transform="translate(-82.416 -23.65)"/><path class="b" d="M608.872,65.165c7.592-6.334,16.987-7.768,26.215-9.714,1.946-.411,3.02.755,4.077,1.98a12.8,12.8,0,0,1,1.359,2.156c3.037,5.579,3.079,5.713,9,3.406q6.292-2.517,12.323-5.562c2.164-1.091,3.616-.654,5.033,1.023.973,1.149,2.089,2.181,3.028,3.356a1.491,1.491,0,0,0,2.223.327c1.107-.621.31-1.208.067-1.82-2.315-5.738-.688-9.546,4.765-12.415a39.268,39.268,0,0,1,22.574-4.085c5.721.554,11.434,1.879,16.417,5.084a14.261,14.261,0,0,0,7.55,2.458,11.812,11.812,0,0,1,8.3,3.683,23.968,23.968,0,0,0,3.716,2.517c.839.545,1.309.495,2.022-.5,3.171-4.429,8.708-5.7,14.68-3.574,5.176,1.829,8.338,6.141,7.625,11.669-.428,3.356.394,6.845-1.476,10.016-3.112,5.26-8.389,5.872-13.632,6.711-1.8.294-3.641.386-5.428.772-4.463.973-6.25,4.882-4.194,9.06a36.708,36.708,0,0,0,7.936,10.067c4.136,4.018,4.849,8.028,2.039,13.2-2.97,5.486-3.07,11.744-3.725,17.868a23.578,23.578,0,0,1-.772,4.1c-.839,3.07-2.08,5.268-6.048,5.872-6.711,1-10.8,6.082-13.657,11.744-4.614,9.169-7.063,18.883-5.335,29.285l-.839.839c-5.57-3.59-9.345-8.716-8.078-15.3,1.594-8.288,1.292-17.289,7.231-24.378,3.934-4.7,8.213-8.716,14.63-9.664,1.678-.252,2.064-2.517,3.59-3.02,4.387-1.518,5.352-5.36,6.526-9.144,1.426-4.589,3.574-8.926,4.312-13.766.344-2.265-.352-3.305-2.106-4.4-3.137-1.946-7-2.928-8.875-6.619-3.02-5.872-4.949-11.862-2.122-18.455a8.859,8.859,0,0,1,7.743-5.872A51.752,51.752,0,0,0,747.9,72.052c2.718-.9,4.412-2.441,3.909-5.713a43.357,43.357,0,0,1-.235-6.443c0-1.6-.763-1.585-1.8-.914a9.906,9.906,0,0,0-2.248,1.82c-5.1,6.208-10.855,4.74-16.853,1.778a31.368,31.368,0,0,1-7.55-5.453c-.7-.671-1.317-1.46-2.466-1.091-5.788,1.854-11.283,0-16.778-1.485A113.513,113.513,0,0,0,689.153,51.2a18.17,18.17,0,0,0-9.488,1.174c-3.087,1.284-3.465,3.079-1.032,5.495,1.636,1.678,3.263,3,1.577,5.688-2.164,3.448-10.989,5.092-14.068,2.408-5.033-4.429-5.159-4.438-11.082-.789-1.367.839-2.743,1.678-4.1,2.517-5.6,3.59-9.479,3.028-13.808-2-4.144-4.832-4.194-4.882-10.192-2.424-5.453,2.223-10.587,5.209-16.308,6.778-6.711,1.829-11.426,0-15.1-5.99a25.745,25.745,0,0,1-3.532-7.214c-.646-2.642-2.215-3.356-4.622-3.515-6.275-.478-11.056,2.735-15.888,6.04-3.129,2.148-4.941,4.572-3.523,8.6.8,2.248-.2,4.052-2.039,5.612A157.563,157.563,0,0,1,547.81,86.943c-4.3,2.693-7.55,2.013-10.511-2.064-1.267-1.77-2.852-2.8-4.874-2.517-3.431.5-4.773-1.6-5.956-4.127-.839-1.753-1.627-3.507-2.517-5.243a8.053,8.053,0,0,0-3.49-4.01c-2.139-1.074-3.9-1.074-4.9,1.577-.713,1.9-1.762,3.683-2.4,5.6-1.174,3.523-3.448,5.033-7.1,4.194A12,12,0,0,1,500.12,77.3c-2.122-2.08-4.194-2-6.325-.05-1.023.948-1.98,1.955-2.995,2.911-.612.579-.52,2.324-1.879,1.611s-.168-1.887,0-2.861c.084-.185.168-.369.26-.554l-.839-.092c-2.6-.176-4.094.981-5.671,3.2-2.626,3.691-7.223,4.421-11.333,5.528a60.145,60.145,0,0,1-8.657,1.367c-3.246.394-5.528-1.82-5.813-5.134A34.344,34.344,0,0,1,460.608,64.2a25.914,25.914,0,0,0,1.493-3.557c1.107-3.356.839-3.926-2.676-4.454-2.659-.4-3.959-2.416-5.545-4.111-2-2.114-3.8-4.421-7.114-4.488-2.349,0-4.673-.21-4.756,3.272-1.82-.839-2.173-1.77-1.51-3.406a6.9,6.9,0,0,1,8.5-4.3,21.341,21.341,0,0,1,11.677,8.129,2.593,2.593,0,0,0,3.087,1.351c2.416-.5,4.522.478,5.142,3.465,1.149,5.537,1.787,10.989-.453,16.45-.679,1.678-1.451,4.127-.277,5.209,1.317,1.2,3.07-.839,4.4-1.678,9.966-6.459,20.049-5.084,30.082-.436,2.634,1.216,3.473.621,4.438-1.887,2.3-5.948,8.959-10.067,15.234-10.067,1.678,0,2.584.956,3.557,1.913,2.743,2.676,4.337,6.107,5.922,9.521.621,1.317,1.174,2.223,2.945,2.382,2.206.2,3.255,2.827,5.579,3.288,1.082.218,1.921.52,3.02-.059A78.229,78.229,0,0,0,556.9,72.078c.839-.7,1.678-1.334,1.737-2.517.495-6.862,4.622-11.417,9.916-15.1,5.7-3.934,11.912-6.451,18.992-6.216,6.644.235,10.738,4.354,10.905,11.031.143,5.31,2.08,6.594,7.432,5.075.772-.226,2.106-2.173,2.475.428-.159.336-.436.688,0,.981a6.455,6.455,0,0,0,.512-.6Z" transform="translate(-70.923 -6.872)"/><path class="b" d="M47.269,558.935c.168,1.887,1.3.881,2.047.612,4.84-1.753,9.748-3.356,14.454-5.419A15.645,15.645,0,0,1,75.3,553.39a5.094,5.094,0,0,0,5.746-1.485,21.573,21.573,0,0,1,9.4-5.973,16.04,16.04,0,0,1,9.807.336c2.827.981,5.419,2.106,3.951,6.04-.78,2.089.327,2.559,2.315,2.248,2.76-.436,5.553-.663,8.338-.889a12.071,12.071,0,0,1,5.092.5c3.75,1.334,4.874,2.986,4.79,6.887a43.136,43.136,0,0,1-5.277,19.42c-1.107,2.089-.94,3.49.495,5.411,3.968,5.344,7.684,10.905,11.367,16.425,6.518,9.807,5.73,20.343,2.877,31.039a34.513,34.513,0,0,1-1.208,4.01c-3.507,8.733-3.406,17.491-.5,26.358,2.735,8.347,5.033,16.853,8.112,25.066,2.1,5.57,5.327,10.721,6.375,16.7.361,2.072.587,4.194.839,6.241,2.106-.31,4.194-.747,6.308-.923,3.859-.336,7.726-.755,11.585-.713,10.285.117,17.113-4.907,21.87-13.691,3.272-6.023,6.233-12.248,10.285-17.843a27.741,27.741,0,0,1,9.387-8.649,2.793,2.793,0,0,0,1.72-3.356c-.252-1.594-.126-3.255-.478-4.815-1.493-6.577.839-11.635,6.157-15.385,3.6-2.517,7.391-4.773,11.082-7.172,6.476-4.194,8.389-9.664,5.621-16.9-1.569-4.1-3.607-8.028-5.377-12.055-4.194-9.563-1.988-18.757,5.872-24.755-.143,1.745,1.283,2.517,2.215,3.632,1.124,1.334,2.944,2.148,3.171,4.194-7.307,8.154-8.07,14.647-3.028,24.328a102.469,102.469,0,0,1,4.723,10.226c3.356,8.657.579,16.828-7.323,21.811-4.261,2.676-8.708,5.033-13.045,7.642-3.079,1.82-4.891,4.127-4.194,8.146a23.549,23.549,0,0,1-.059,10.57c-.453,1.678-1.191,2.6-3.1,2.517a18.608,18.608,0,0,0-3.834.4c-2.156.31-3.926.99-4.043,3.666a4.958,4.958,0,0,1-1.007,2.34,46.139,46.139,0,0,0-6.711,14.857c-.839,3.129-3.834,4.3-6.543,5.235a24.47,24.47,0,0,0-10.2,6.443,14.79,14.79,0,0,1-14.5,4.144,25.167,25.167,0,0,0-16.534,1.728c-5.142,2.29-5.771,1.762-8.464-3.3a20.016,20.016,0,0,1-2.223-9c-.277-11.333-4.245-21.576-8.825-31.693-3.582-7.919-7.223-15.821-8.968-24.42-1.359-6.711-1.418-13.372,1.569-19.58,2.517-5.184,2.517-11.115,5.453-16.1a1.393,1.393,0,0,0-.126-1.493,7.3,7.3,0,0,1-.8-1.753c-2.038-10.293-9.228-17.927-14.194-26.626-1.846-3.213-2.257-5.6-.445-8.389,3-4.664,2.609-10.008,3.733-15.343-4.538.973-8.741,1.678-12.826,2.827a3.6,3.6,0,0,1-4.421-1.518c-1.451-2.005-2.852-4.035-4.236-6.082-.646-.948-1.057-2.3-2.617-1.678s-3.783.067-4.387,2.517c-.545,2.181-1.183,4.345-1.929,6.468-1.191,3.356-2.517,4.278-5.713,3.079-7.323-2.726-14.429-3.825-21.668.377-2.391,1.393-5.369,1.46-8.171,1.6-2.1.117-4.077-.218-5.461-2.064l-1.3-1.745c-.713-2.517-2.928-4.3-3.2-7,2.122-3.121,4.7-1.04,7.13-.638A33.579,33.579,0,0,1,47.269,558.935Z" transform="translate(-6.222 -87.829)"/><path class="b" d="M467.147,465.8c.377.671.906,1.367-.277,1.8-.738-2.248-2.181-.982-3.146-.453-4.194,2.324-7.55,5.688-10.905,8.984-3.616,3.54-7.122,7.189-10.654,10.8a28.69,28.69,0,0,1-10.192,7.13c-4.9,1.888-6.25,5.73-4.262,10.738.839,2.206,1.418,4.253-.713,6.141a3.223,3.223,0,0,0-.654,3.355c.671,2.659-.361,4.555-2.433,6.149-1.678,1.3-3.255,2.8-4.924,4.194-1.225.99-3.188,1.871-4.136,1-1.787-1.678-2.064.117-2.827.931-1.393-1.552-1.158-3.356-1.678-4.991-1.116-3.54-2.466-7.047-5.5-9.228-8.053-5.872-11.107-14.135-12.155-23.564-.478-4.27-1.258-8.506-1.787-12.776-.21-1.678-.5-2.215-2.4-1.543a37.168,37.168,0,0,1-8.842,1.678c-2.064.2-2.928-.73-3.49-2.475A36.652,36.652,0,0,1,374.9,460.6c.185-4-3.288-3.6-5.344-4.9s-2.768.176-3.624,1.611a6,6,0,0,1-2.668,2.257c-8.07,3.884-24.328,1.174-30.72-5.033-1.367-1.334-2.517-2.844-2.475-4.723,0-2.6-1.292-2.827-3.246-2.257-2.7.8-5.579.772-8.221,1.493-7.869,2.156-12.063-3.079-16.66-7.684a9.521,9.521,0,0,1-.973-1.351c-1.812,1.929-1.56,3.758-.3,5.746a62.963,62.963,0,0,0,9.312,11.082,2.074,2.074,0,0,0,2.953.394c2.944-1.611,6.4-2.953,9.572-2.215,3.523.839,7.55.193,10.57,3.406,1.569,1.678,4.261,2.517,6.6,3.146s2.869,2.038,2.819,4.194a18.817,18.817,0,0,1-2.517,9.857c-.881,1.393-.982,2.592,0,3.783,1.367,1.678.8,3.054-.159,4.631-4.413,7.248-11.35,11.249-18.724,14.7-1.938.906-3.985,1.6-6.006,2.324-3.355,1.216-6.9,1.963-10.352.621s-5.931.05-8.255,1.988c-3.356,2.8-6.468,5.872-9.974,9.152,2,1.032,3.825.738,5.646.352,3.045-.646,6.09-1.334,9.144-1.938.688-.134,1.678-.26,1.8.788.109.839-.839.839-1.376,1.032-4.538,1.678-8.33,4.924-13.12,6.04l-3.087.26c-6.988-1.015-11.795-4.689-14.32-11.392a17.1,17.1,0,0,0-3.456-5.033c-9.454-10.813-15.2-23.866-21.811-36.382-3.2-6.057-6.2-12.3-6.761-19.294a1.888,1.888,0,0,0-1.233-1.678,5.268,5.268,0,0,1-2.676-3.49c-.277-1.267-1.678-2.693-.319-3.892,1.183-1.049,2.433.193,3.574.621,2.248.839,4.471.361,6.711.05a4.043,4.043,0,0,1,3.4,1.149c5.755,4.538,7.852,11.182,10.134,17.617a26.7,26.7,0,0,0,6.711,10.427,78.252,78.252,0,0,1,20.133,33.278c.621,1.955,1.476,1.317,2.517.663,3.3-2.013,6.711-3.876,9.857-6.107a11.149,11.149,0,0,1,7.995-1.72c5.763.579,10.461-1.309,14.58-5.36a39.262,39.262,0,0,1,8.531-6.845c.562-.3,1.778-.369,1.4-1.351-.487-1.267-1.393-.319-2.148-.1a10.213,10.213,0,0,1-1.678.2,10.343,10.343,0,0,1,2.911-3.85,19.974,19.974,0,0,0,5.453-7.877c.419-1.208.31-1.971-1.091-2.441a15.5,15.5,0,0,1-8.666-7.323c-5.293,6.644-10.335,8.5-16.677,5.8-4.413-1.871-6.9-5.688-8.741-9.916-2.315-5.327-3.255-11.1-5.168-16.559-.629-1.812.94-2.617,2.047-3.146,1.325-.629,3.146-.268,3.465,1.325.6,2.944,2.332,2.986,4.631,2.517,1.552-.319,2.416.319,3.054,1.929,2.332,5.872,2.408,5.872,8.691,4.933,4.253-.612,8.523-1.158,12.793-1.678,1.829-.218,3.607-.151,3.356,2.517-.076.7,0,1.3.923,1.351,3.859.2,7.089,2.391,10.687,3.465a25.166,25.166,0,0,0,14.6.092,22.053,22.053,0,0,1,8.884-1.124c1.518.185,3.557-.361,3.75,2.324.067.839,1.284.461,1.988.554,3.4.453,5.3,2.307,6.073,5.7a37.909,37.909,0,0,1,.529,9.966c-.109,2.693,1.049,3.1,3.448,2.768a7.122,7.122,0,0,0,5.579-3.624,43.3,43.3,0,0,1,4.572-5.4c.638-.73,1.46-1.107,2.164-.226a1.191,1.191,0,0,1-.352,1.9c-.99.638-1.434,1.577-.059,2.156,2.517,1.074,2.332,3.356,2.03,5.209a27.029,27.029,0,0,0,2.022,15.729,16.032,16.032,0,0,1,1.577,8.481c-.369,2.676.906,4.194,2.76,5.637a39.987,39.987,0,0,1,9.513,9.974c1.678,2.735,2.785,5.553,2.29,8.833-.092.6-.419,1.351.487,1.594s.99-.646,1.334-1.107c3.481-4.631,5.771-9.555,3.775-15.544-1.9-5.7.537-9.932,4.555-13.758a183.772,183.772,0,0,1,20.687-16.442,64.63,64.63,0,0,0,7.3-6.711c3-2.928,6.459-4.513,10.8-3.884a4.765,4.765,0,0,1,2.533.948ZM239.089,441.947c3.213,6.87,6.132,13.422,9.32,19.856,6.711,13.556,13.607,27.029,22.943,39.05,3.272,4.194,6.795,8.162,11.744,11.316-1-5.788-1.569-11.014-4.144-15.939a121.082,121.082,0,0,0-23.162-31.106,16.384,16.384,0,0,1-4.488-7.634c-1.216-4.329-2.517-8.64-3.96-12.885-.839-2.366-2.013-4.563-5.277-2.877C241.387,442.106,240.389,441.88,239.089,441.947Zm176.417,80.717.227.419c.075-.076.218-.159.2-.218a1.807,1.807,0,0,0-.2-.428Z" transform="translate(-37.757 -70.072)"/><path class="b" d="M733.361,648.707a51.26,51.26,0,0,1-3.515,4.194c-1.837,1.745-1.9,3.674-1.132,5.872.923,2.617-1.6,9.228-3.985,10.637s-7.953.654-10.369-1.552-3.968-5.319-5.52-8.271c-.411-.78-.529-1.678-1.778-1.988-7.55-1.678-9.807-4.723-9.454-12.306.2-4.471,0-4.5-4.329-3.037-5.243,1.762-9.169,5.293-12.373,9.463-2.517,3.288-5.31,3.054-8.54,2.148a9.46,9.46,0,0,1-2.324-1.091c-5.176-3.146-8.859-2.466-12.583,2.668-3.02,4.194-5.772,8.523-8.7,12.759a10.62,10.62,0,0,1-2.332,2.659c-3.037,2.19-5.872,4.077-5.612,8.766.159,2.718-2.676,4.144-5.553,4.32a43.28,43.28,0,0,1-12.164-1.174c-1.678-.386-2.324-.076-2.852,1.678-1.4,4.622-3.02,9.177-4.748,13.682a19.621,19.621,0,0,0,0,14.462c.646,1.678,1.082,3.481,1.678,5.21,1.8,5.5.839,10.419-3.188,14.613-2.315,2.424-3.943,5.084-4,8.531-.05,2.986.57,3.448,3.355,2.416,4.354-1.611,8.229-4.194,12.382-6.183,2.424-1.174,4.756-2.634,7.3-.042.965.99,2.265.042,3.356-.319,9.848-3.356,19.353-7.667,29.554-9.966a40.892,40.892,0,0,1,10.905-1.124c6.04.285,9.077,3.356,9.144,9.286,0,2.584-.176,5.167-.168,7.751,0,1.485-.092,3.062,2.181,3.221.763.059,2.24,1.04.529,1.812a9.664,9.664,0,0,1-5.386,1.007c-2.072-.386-3.3-2.332-3.565-4.53-.319-2.559-.52-5.134-.7-7.7-.21-3.079-1.384-4.077-4.513-3.859a64.76,64.76,0,0,0-16.887,3.884c-8.322,2.9-16.585,6.015-25.594,5.872a2.022,2.022,0,0,0-1.887.956c-4.3,6.292-10.612,7.55-17.616,6.946-7.877-.654-11.677-5.872-10.142-13.816a32.449,32.449,0,0,1,4.421-10.318c2.022-3.456,3.121-6.577,1.535-10.713a38.825,38.825,0,0,1-2.181-13.959c0-6.183,2.164-11.593,5.6-16.585,2.659-3.842,6.518-5.419,11.04-5.7,3.112-.2,6.25-.277,9.169-1.544,1.787-.78,3.658-1.544,3-4.194a1.166,1.166,0,0,1,.78-1.518c7.651-3.054,12.206-9.622,17.482-15.377,2.4-2.609,4.756-5.285,7.374-7.659,4.261-3.859,7.072-3.783,11.09.143,1.443,1.418,2.156,1.678,3.758-.075,5.084-5.52,10.2-11.182,17.843-13.271a16.641,16.641,0,0,1,13.053,1.325c3.356,1.929,3.859,5.377,1.46,8.389a25.237,25.237,0,0,0-2.089,2.844c-.512.839-.713,2.114.428,2.458,4.731,1.418,6.845,5.218,8.9,9.228.5.956.839,2.517,2.181,2.416s1.393-1.778,1.8-2.827a98.155,98.155,0,0,1,13.12-22.767c1.091-1.451,4.84-1.334,5.7.235a1.778,1.778,0,0,1-.839,2.659c-.973.453-2,.839-2.97,1.25-.7.31-1.409.713-1.292,1.627s.956.528,1.518.654c1.325.3,1.158,1.485,1.107,2.357-.445,6.929,3.23,12.3,6.6,17.793a3.86,3.86,0,0,0,1.309,1.342c8.255,4.622,11.3,13.5,16.719,20.427a4.8,4.8,0,0,1,.671,3.1,30.678,30.678,0,0,0,4.572,15.888,6.149,6.149,0,0,1,.461,5.2c-1.334,4.748-2.273,9.614-3.5,14.387-.99,3.834-3.565,6.871-5.746,10-5.453,7.835-9.228,16.367-12.348,25.334-4,11.467-15.15,16.887-26.9,13.657a5.693,5.693,0,0,0-1.879-.336,1.678,1.678,0,0,1-2.047-1.56c-.26-1.376,1.057-1.2,1.72-1.392,6.3-1.829,11.87-5.579,18.329-6.954a2.156,2.156,0,0,0,1.678-2.114c1.728-12.348,9.3-21.962,15.217-32.331a122.132,122.132,0,0,0,7.357-14.982c2.844-7.1,1.854-13.372-1.988-19.6q-6.241-10.142-12.407-20.334C738.478,665.812,734.695,658.17,733.361,648.707Z" transform="translate(-96.978 -102.286)"/><path class="b" d="M24.276,523.064a8.415,8.415,0,0,1-3.423-2.341c-4.874-6.929-11.241-12.709-15.385-20.209A25.434,25.434,0,0,1,2.775,493.3c-.772-3.8-.528-7.458,1.913-10.763,1.46-1.98,2.676-4.194,4.069-6.191a9.463,9.463,0,0,0,1.787-6.308c-.428-6.434-.755-12.86,2.206-18.975a29.747,29.747,0,0,1,9.647-11.04,111.146,111.146,0,0,0,9.228-7.55,17.189,17.189,0,0,0,5.78-9.865c1.342-7.189,6.711-10.771,12.684-13.825,1.351-.7,3.221-.789,3.423-2.911.067-.654.713-.663,1.275-.671,2.038-.042,4.329-.52,6,.7,4.824,3.507,9.135,1.3,13.548-.747a6.377,6.377,0,0,1,.839-.453c5.872-1.586,11.073-4.723,16.61-6.954,4.488-1.8,9.765-.185,14.655.621a13.791,13.791,0,0,0,5.872.2c4.7-1.141,8.615,3.809,6.921,8.339-1.317,3.515-1.317,3.59,2.517,3.708,5.033.151,8.968,2.517,12.332,6.09,2.626,2.81,5.117,5.755,8.54,7.743,1.594.923,2.517,1.015,3.532-.73a17.44,17.44,0,0,1,6.594-6.468c3.792-2.114,12,.084,14.043,3.884.47.839,1.057,2.055.361,2.986-.587.772-1.585.092-2.408,0-2.424-.3-4.371-1.678-6.51-2.693-.9-.4-1.988-1.208-2.919,0-.839,1.04-1.854,1.846-1.468,3.624,1.132,5.168-.487,6.929-5.612,7.407-5.637.537-10.184-1.611-14.37-4.991-1.837-1.485-3.674-2.978-5.377-4.614-2.835-2.71-2.785-2.76-1.887-6.636-4.194,2.189-8.389,3.716-12.927,2.517-5.184-1.384-6.543-2.324-6.266-7.256.134-2.357,0-4.731,0-7.684-2.29,2.416-4.547,2.634-6.979,1.242-1.258-.721-2.189.143-3.255.663-6.073,2.953-12.038,6.149-18.632,7.944A25.41,25.41,0,0,1,59.752,411.9c-2.517-1.284-4.605-1.443-6.644,1.149a103.525,103.525,0,0,1-7.424,7.936c-2.022,2.064-1.678,4.815-1.988,7.265a9.622,9.622,0,0,1-2.986,5.872c-2.382,2.324-4.488,5.327-7.357,6.711-4.941,2.324-6.317,7.6-10.234,10.637-2.089,1.619-1.443,4.379-2.215,6.568-3.431,9.706-6.644,19.479-10.008,29.21-1.485,4.3-1.409,8.2,1.149,12.273,3.683,5.872,7.55,11.426,13.053,15.788a22.652,22.652,0,0,0,5.948,3.112c-1.552,1.787-4.5,2.064-5.184,4.8Z" transform="translate(-0.384 -63.92)"/><path class="b" d="M197.008,372.074c2.642-.9,3.918-3.213,5.352-5.31,4.32-6.334,6.845-13.607,10.377-20.351A17.172,17.172,0,0,1,223.9,337.4c2.8-.772,5.251-.159,6.711,2.424.914,1.678,1.619,1.342,2.9.6,2.877-1.678,5.872-3.154,8.775-4.715l4.547-.067c2.148.671,5.1-.285,5.981,2.961-.52,1.862-1.032,3.725-1.552,5.6a6.409,6.409,0,0,1-4.639,3.859c-1.149.226-2.919.99-2.441,2.735a3.075,3.075,0,0,0,3.448,2.626c3.431-.218,6.887.067,10.327-.092a4.731,4.731,0,0,1,4.119,2c4.06,4.857,3.356,10.813-1.77,14.538a23.253,23.253,0,0,1-8.473,3.825,9.119,9.119,0,0,1-8.112-1.678c-7.961-5.973-16.719-4.555-25.426-1.728-1.116.361-2.122,1.023-3.213,1.485-6.015,2.559-8,6.166-6.787,12.365.344,1.737,5.738,5.268,7.449,4.832,5.579-1.426,11.551-1.443,16.635-4.673.721-.461,1.216-.453,1.6.621,1.141,3.137,3.1,5.78,5.033,8.523a11.392,11.392,0,0,1,1.8,8.338c-.688,4.027-1.6,8-2.34,12.013a2.517,2.517,0,0,1-1.921,2.282c-8.12,2.29-16.283,4.069-24.789,2.475a15.578,15.578,0,0,1-5.092-1.938c-.789-.47-1.879-.948-1.393-2.173s1.3-.982,2.408-.78a34.965,34.965,0,0,0,20.192-2.307c1.166-.495,2.307-.789,1.158-2.433-.981-1.409.126-2.693.621-3.926.923-2.282,2.164-4.471,2.273-7,.168-3.515-.889-4.387-4.278-3.75a55.86,55.86,0,0,1-13.162,1.023,15.612,15.612,0,0,1-13.976-10.587,7.122,7.122,0,0,1,.109-4.756c.839-2.1,0-3.179-2.013-3.356-2.248-.168-3.968-.738-4.119-3.356v.05c.839.52,1.208.117,1.367-.7l-.1.059c.738.344,1.174.059,1.393-.679Zm7.357-.6c2.424-.176,4.094-1.6,5.872-2.768,10.226-6.929,21.3-8.531,33.127-5.369,4.194,1.133,7.55-.495,9.144-4.807-4.194-.21-7.919-.973-11.14-4.085-3.758-3.632-1.51-7.483-1.107-11.4-2.768,1.258-5.922,1.208-6.6,5.268s-4.194,4.731-7.231,1.678c-1.191-1.2-1.938-2.45-1.426-4.262.419-1.485.478-3.288-.839-4.127-1.753-1.091-2.9.7-4.085,1.678-2.869,2.374-5.033,5.478-4.614,9.152.889,7.382-2.03,12.122-8.624,15.016-1.619.663-2.777,1.745-2.475,4.027Z" transform="translate(-31.338 -54.047)"/><path class="b" d="M710.641,588.666c.839-1.166,0-1.611,0-2.215.1-1.6.612-3.02,2.315-3.356a2.593,2.593,0,0,1,3.179,2.039,28.765,28.765,0,0,1,.839,3.112c1.057,5.176,1.98,4.924,6.6,3.179a5.033,5.033,0,0,0,3.565-4.194c.159-1.678,1.241-2.273,2.718-2.7s2.349.134,3.288,1.216c3.691,4.253,8.741,5.621,14.051,6.342a92.993,92.993,0,0,1,14.261,2.584c2.3.688,3.976,1.56,4.547,4.538.948,5.033,3.07,9.8,5.117,14.538,1.049,2.433,3.414,3.154,5.235,4.572.931.721,2.156,1.158,2.7,2.231,1.158,2.307,2.382,4.706.747,7.29-1.5,2.366-3.9,1.384-5.872,1.166-5.461-.629-9.295-4.278-12.868-7.978-1.938-2.005-2.517-1.779-3.288.7-.57,1.778-.445,4.572-3.163,4.53s-5.579-1.007-6.468-4.253c-.789-2.852-2.4-3.758-5.386-3.28-3.783.6-7.407-.965-11.115-1.544-1.174-.185-1.434-1.132-1.862-1.98a23.567,23.567,0,0,1-2.022-8.062c-.117-1.04,0-2.29-1.292-2.684-4.194-1.241-7.785-4.5-12.248-4.379-5.176.151-7.55-2.223-9.781-8.053-.671-1.745-.889-3.959,1.334-5.117C707.747,585.873,709.475,586.3,710.641,588.666Zm12.172,8.389c4.874-.067,8.2,2.114,9.958,6.367a21.653,21.653,0,0,1,1.753,5.822c.344,3.112,1.837,3.356,4.337,2.517s5.235-1.9,7.894-2.726c4.572-1.426,6.577.243,6.032,4.916-.059.461-.327,1.049.419,1.451.487-.294,1.015-.663,1.586-.94,3.507-1.728,5.386-1.317,7.944,1.678a34.043,34.043,0,0,0,9,7.726c1.233.7,3.163,2.416,4.136.487.839-1.577-1.728-1.988-2.8-2.886a5.6,5.6,0,0,0-1.124-.713c-5.7-2.9-9.8-6.845-9.614-13.883.05-2.215-1.25-3.691-3.456-4.522-6.711-2.517-13.758-4.06-20.762-5.612a10.066,10.066,0,0,1-4.287-2.055c-2.861-2.282-8.347-1.283-11.015,2.349Zm-9.706-7.768a5.68,5.68,0,0,0-1.191-.587c-.554-.126-.763.235-.495.663a2.289,2.289,0,0,0,.965.7c.076.008.344-.352.721-.805Z" transform="translate(-113.425 -93.903)"/><path class="b" d="M316.643,328.464c.721-.05,1.04-.1,1.367-.1,7.785.092,9.488,2.341,7.34,9.656a35.788,35.788,0,0,1-2.835,7.164,10.427,10.427,0,0,1-7.063,5.62,11.015,11.015,0,0,0-3.288,1.267c-1.158.7-1.862,1.678.126,2.391a2.626,2.626,0,0,1,1.753,3.607c-.78,2.189.168,3.733,1.569,5.193a19.618,19.618,0,0,0,1.854,1.787,17,17,0,0,1,6.711,15.872c-.1.965-.067,1.938-.084,2.9-.092,4.832-1.183,6.057-6.082,6.292a28.8,28.8,0,0,1-13.8-2.71c-3.641-1.728-3.624-5.78-4.035-9.228-.386-3.2,1.132-6.09,2.055-9.035.638-2.039.6-3.356-1.116-5.084a34.2,34.2,0,0,1-7.458-11.577,7.982,7.982,0,0,1,1.678-9.1c1.678-1.778,2.659-4.127,4.077-6.132,2.768-3.9,6.325-6.845,11.182-7.5C312.826,329.446,314.6,327.172,316.643,328.464Zm.772,49.637a20.066,20.066,0,0,0-5.033-13.9c-1.913-2.156-3.934-4.253-5.117-6.963-1.8-4.094-.923-6.711,2.928-8.741,3.523-1.829,6.61-4.018,7.55-8.246.537-2.475-1.149-4.622-3.607-4.043-4.421,1.057-9.622.562-12.281,5.579a2.047,2.047,0,0,1-.99.839c-3.045,1.275-2.265,3.523-1.384,5.688,1.678,4.194,2.475,8.8,5.579,12.382a6.712,6.712,0,0,1,.839,2.416,50.258,50.258,0,0,1,1.8,15.939c-.109,2.928.923,3.8,3.624,4.253C317.4,384.3,317.365,384.451,317.415,378.1Z" transform="translate(-47.195 -52.826)"/><path class="b" d="M550.956,588.626c-.7-5.084-1.3-10.184-2.131-15.242a5.872,5.872,0,0,0-3.708-4.79c-5.444-2.391-8.674-6.845-10.243-12.483-.654-2.357.445-3.112,3.012-2.869,5.243.487,8.389,3.7,11.048,7.8,1.091,1.678,2.433,3.288,3.355,5.075,3.255,6.1,8.7,10.117,13.674,14.571-.277,1.183.445,2.609-.889,3.515-1.678-.529-3.179-1.745-5.092-1.619-1.023-1.082-2.089-2.131-3.07-3.246-1.5-1.678-2.4-.394-3.355.621-1.174,1.284-.587,3.02.554,3.121,2.718.235,3.574,2.877,5.729,3.666,1.678,3.246,3.842,5.956,7.734,6.627,1.25.218,2.634.839,3.674-.235,1.275-1.334-.21-2.517-.436-3.842,1.8-.26,2.416-2.374,4.194-2.693l1.149.839c.5.839,1.007,1.678,1.527,2.449,1.778,2.819,2.181,5.52-.562,8.036-1.435,1.309-1.25,1.812.7,2.7a35.745,35.745,0,0,0,21.97,2.928,36.953,36.953,0,0,1,7.407-.151,7.961,7.961,0,0,1,5.914,2.869c.612.688,1.737,1.678.478,2.735-1.007.839-2.013,2.273-3.557,1.426-3.465-1.888-7.114-1.56-10.637-.713a29.629,29.629,0,0,1-24.6-4.379c-1.451-.973-3.356-1.778-2.978-4.119.185-1.2-.52-1.166-1.351-1.057-2.609.336-5.125-.344-7.676-.68-1.51-.78-2.911-1.829-4.689-1.955l-6.711-5.813v-.059c.721-.445.336-1.015.185-1.56a1.8,1.8,0,0,0-.621-1.476Z" transform="translate(-86.149 -89.098)"/><path class="b" d="M716.663,339.959c-3.649-.663-3.808-.612-2.584,3.129,2.609,7.936,5.436,15.8,8.087,23.715a32.843,32.843,0,0,1,1.678,13.338c-.411,4.773-1.678,6.3-6.174,7.869-6.921,2.433-14.261,2.9-21.308,4.874-3.515.982-6.191,2.248-7.609,5.973-1.225,3.213-3.456,3.859-6.09,2.517-1.753-.914-3.037-1.988-1.451-4.245,1.384-1.98,1.166-4.53,1.921-6.761,1.082-3.179,2.609-6.208,6.25-6.619,6.485-.747,9.63-5.553,13.061-10.067a65.9,65.9,0,0,0,3.8-6.334c2.441-3.96,2.45-8.087,1.074-12.382a26.355,26.355,0,0,1-1.611-9.152c.218-5.428,1.946-7.072,7.391-6.9.679,0,.512-.545.721-.839C715.027,338.273,716.78,337.7,716.663,339.959Zm-4.941,13.154c-.327,5.327-.495,9.8-.881,14.261-.621,7.089-3.356,12.835-10.511,15.57-1.678.646-3.314,1.51-4.975,2.273a29.364,29.364,0,0,0-7.307,4.631c-1.242,1.091-1.351,2.215-.285,3.305s1.611-.277,2.257-.839a46.469,46.469,0,0,1,7.3-4.673c5.6-3.163,11.6-5.646,16.425-10.067,1.971-1.8,3.834-3.934,3.6-6.577C716.806,364.983,714.75,359.312,711.722,353.113Z" transform="translate(-109.64 -54.438)"/><path class="b" d="M601.623,567.971l1.275-.8,5.872-3.045c4.371-1.8,7.768-4.9,11.048-8.171,1.292-1.292,2.743-2.424,3.985-3.758,3.137-3.356,7-3.146,11.023-2.416a1.493,1.493,0,0,1,1.46,1.367c1.04,5.033,1.191,10-1.124,14.806-2.617,5.419-4.547,10.956-1.678,16.929.738,1.51-.109,2.684-.772,3.884-7.13,12.952-21.593,13.456-30.577,1.116-1.51-2.08-2.76-4.337-4.144-6.51-2.626-4.119-2.517-6.09.529-10,.654-.839,1.275-1.678,1.9-2.559ZM614.668,588c7.995.05,12.944-5.277,11.954-12.415-.7-5.033-1.057-10.008,1.493-14.747a14.259,14.259,0,0,0,1.2-3.985c.151-.772.529-1.862-.386-2.332-1.049-.545-1.435.579-1.938,1.216-.336.419-.587.9-.889,1.342-4.547,6.77-9.588,12.81-18.825,12.583a3.794,3.794,0,0,0-.94.21c-3.9.881-6.468,3.431-6.77,6.711-.126,1.317,4.027,8.833,5.268,9.228C608.242,586.9,611.958,586.427,614.668,588Z" transform="translate(-96.047 -88.476)"/><path class="b" d="M68.591,278.169c.109,4.018,2.164,7.55,4.5,10.905.3.445.713.839,1.007,1.258,3.725,5.772,5.99,5.612.117,11.912a6.552,6.552,0,0,0-1.468,2.819c-1.007,3.985,1.325,6.149,5.226,5.159,3.624-.923,7.03-2.726,10.905-2.668.587,0,1.367-.285,1.728.411s-.243,1.183-.6,1.678a7.55,7.55,0,0,1-4.194,2.852c-6.283,1.778-12.885,2.047-19.16,3.968-1.183.361-2.315-.73-2.9-1.678-.738-1.166.478-1.678,1.342-2.055,1.376-.554,1.149-1.678,1.1-2.718-.243-5.184,1.124-9.731,4.933-13.422,1.51-1.468,1.762-2.668-.352-4.32-6.652-5.176-7.3-12.726-7.332-20.393a1.678,1.678,0,0,1,.478-1.091A8.731,8.731,0,0,1,77.013,272c2.676,3.423,4.345,7.391,5.956,11.367,1.082,2.684,2.03,5.419,3.062,8.12,1.267,3.355,2.718,6.493,5.528,8.917,1.065.923,2.869,2.416,1.3,3.909a3.758,3.758,0,0,1-5.293,0,29.646,29.646,0,0,1-7.03-9.135,65.036,65.036,0,0,1-5.553-17.39c-.663-3.356-1.594-3.951-4.4-3.263C68.566,275.015,68.364,276.265,68.591,278.169Z" transform="translate(-10.221 -43.208)"/><path class="b" d="M273.978,124.855c-1-11.467,4.756-20.259,11.308-28.7,2.76-3.565,6.711-6.568,8.389-10.553,2.1-5.033,6.585-4.9,10.067-6.879a3.062,3.062,0,0,1,4.245,1.1c1.258,1.787-.361,2.357-1.476,3.179a100.341,100.341,0,0,0-17.675,15.939c-2.517,2.928-4.136,5.981-4.236,10.067-.134,5.872,0,11.845-2.819,17.323-1.476,2.844-.042,4.857,2.24,6.543,2.148,1.585,4.7,2.617,6.485,4.723,1.342,1.585,2.97,3.439,1.225,5.327-1.6,1.745-3.825,1.678-5.495-.478-.679-.839-1.292-.6-2.189-.134-3.49,1.8-6.057.755-7.684-3C274.314,134.7,273.978,129.779,273.978,124.855Z" transform="translate(-44.125 -12.58)"/><path class="b" d="M836.842,856.37c-2.517.839-4.052,3.121-6.266,4.421-3.146,1.846-6.333,2.961-10.067,1.921a3.522,3.522,0,0,1-2.986-3.5c-.839-8.322,1.988-13.514,10.352-18.162,4.5-2.517,9.085-4.815,13.573-7.307a22.835,22.835,0,0,0,8.137-7.139c1.485-2.231,2.349-1.158,3.087.453,1.023,2.248.285,4.664.528,7l-.1,2.592c-.7,4.253-1.594,8.389-6.409,9.991-1.334-1.9-2.458-.352-3.431.344-1.191.839-2.072,2.139-3.247,3.028a3.5,3.5,0,0,0-1.141,4.714l-1.351,1.174Zm10.629-20.511-.579-.638c-4.287,3.179-8.657,6.266-12.852,9.572-3.959,3.121-7.919,6.3-10.847,10.494-.436.629-1.627,1.233-.839,2.122s1.586-.126,2.315-.445a43.623,43.623,0,0,0,9.924-5.872C839.921,846.865,844.652,842.142,847.471,835.859Z" transform="translate(-131.696 -132.945)"/><path class="b" d="M129.842,64.467c.772-4.136,2.315-5.092,6.157-3.658a60.189,60.189,0,0,1,11.744,5.964c3.079,2.03,3.28,3.356,1.057,6.535a6.1,6.1,0,0,0-.839,4.916c.336,1.787.839,3.548,1.107,5.344.973,6.51-4.765,11.157-11.09,9.026a14.185,14.185,0,0,1-6.627-4.849c-4.5-5.671-6.938-12.038-6.216-19.378.327-3.356,1.149-3.884,4.253-3.154.285.218.6.57.914.109S130.11,64.694,129.842,64.467Zm.587.671a18.918,18.918,0,0,0,.419,6.174,51.051,51.051,0,0,0,5.293,15.377c.562.99,1.023,3.02,2.928,2.055,2.248-1.149,4.547-2.29,3.968-5.713-.394-2.29-.076-4.7-.076-7.055,0-1.208-.1-2.424-1.183-3.171C138.122,70.289,134.422,67.831,130.429,65.138Z" transform="translate(-20.141 -9.664)"/><path class="b" d="M654.71,521.657a5.52,5.52,0,0,1,2.366-4.463c1.283-.965,2.584-1.9,3.884-2.835a6.6,6.6,0,0,1,8.389.646,2.328,2.328,0,0,1,.461,2.374,41.453,41.453,0,0,1-.923,4.74c-.31,1.133-.143,1.98.981,2.307,2.3.671,2.148,2.3,1.77,4.077a2.2,2.2,0,0,1-.075.319c-1.309,6.493-1.309,6.493,4.7,8.85.7.268,1.418.5,2.1.839s1.552.252,1.376,1.409a1.544,1.544,0,0,1-1.678,1.51c-2.03.176-4.035.562-6.057.839-1.82.268-3.632.126-4.983,2.064a2.735,2.735,0,0,1-4.278.319c-1.745-1.678-2.575-3.876-1.334-6.09A44.611,44.611,0,0,1,665.6,532.9a21.732,21.732,0,0,0,3.162-5.21c.227-.57.789-1.225,0-1.627-.629-.319-1.091.075-1.485.755-.562.981-.4,2.626-1.762,2.869a22.4,22.4,0,0,1-6.367.487C656.858,529.911,654.7,525.658,654.71,521.657Z" transform="translate(-105.486 -82.646)"/><path class="b" d="M15.586,227.018a18.337,18.337,0,0,1-7.416-1.946c-2.7-1.25-4.647-2.575-3.49-6.258A5.019,5.019,0,0,0,1.325,212.1c-1.325-.47-1.82-.839-.721-2.189a24.059,24.059,0,0,1,4.488-4.605c2.248-1.585,4.446-1.678,6.342.4a2.359,2.359,0,0,0,3.314.671c1.4-.713,2.869-.923,4.194-1.594,3.02-1.535,5.8-1.359,8.338.9a9.555,9.555,0,0,1,3.238,9.32C29.361,220.844,21.492,226.968,15.586,227.018ZM7.2,209.4c.126,1.443,0,2.466.26,2.626,3.548,1.879,2.29,4.5,1.493,7.29-.377,1.317-.226,3.028,1.846,3.473,3.439.747,6.166-.277,7.986-3.146a9.572,9.572,0,0,1,2.4-2.517,12.935,12.935,0,0,0,3.683-3.976c.839-1.527,1-3.045-.428-4.387s-2.659-1.007-4.077-.168c-4,2.332-8.129,3.859-13.145.763Z" transform="translate(0 -32.801)"/><path class="b" d="M722.475,336.341c.117-2.257-1.678-1.678-2.869-1.887a5.872,5.872,0,0,1-.31-3.163c.763-.52.6-.931-.151-1.275a2.517,2.517,0,0,1-.352-1.929c1.023,0,2.022-.067,2.148-1.468-1.107-.386-1.351,1.007-2.231.839-.076-.319,0-.772-.227-.923-2.383-1.9-2.517-3.355-.537-6.283a8.582,8.582,0,0,1,1.879-2.181c1.544-1.149,2.978-2.2,4.874-.059,1.678,1.921,4.01,2.391,6.224.327a17.418,17.418,0,0,1,1.9-1.2c1.678-1.242,3.506-2.29,5.52-.738s1.678,3.632,1.292,5.629c-.747,3.574-1.678,7.089-3.918,10.108-.537-.889.562-2.106-.755-3.07-.268,1.678-1.963,2.668-1.409,4.5l-1.4.327c-2.357.2-5.251-1.132-6.459,2.3a5.108,5.108,0,0,1-3.221.143Z" transform="translate(-115.453 -50.82)"/><path class="b" d="M717.3,751.58c1.242.268,2.08.612,1.208,1.946-1.351,2.064-2.659,4.194-4.027,6.208a21.876,21.876,0,0,0-2.24,4.966c-.529,1.51-.587,2.29,1.384,2.567,2.517.361,3.691,2.458,4.463,4.631.965,2.718,1.728,5.511,2.575,8.28,1.091,3.515,2.341,6.946,5.545,9.161a3.185,3.185,0,0,1,1.049,4.58c-.914,1.728-2.315,1.829-4.27,1.074-7.24-2.785-10.905-8.607-10.905-15.62,0-3.976-1.535-6.023-3.632-8.464s-2.6-5.872-.738-8.288c2.668-3.5,5.57-6.8,8.389-10.176A6.626,6.626,0,0,1,717.3,751.58Z" transform="translate(-113.84 -121.061)"/><path class="b" d="M867.934,822.953a9.974,9.974,0,0,1-1.065-12.424c.99-1.678,1.938-3.49,3.582-4.5,3.649-2.231,4.329-5.31,3.557-9.228a16.483,16.483,0,0,1,.554-6.711c.386-1.728,1.342-2,2.735-.839a5.579,5.579,0,0,1,2.072,4.865c-.487,5.21,1.242,8.691,6.619,9.882.461.1.839.638,1.242.965-.6.436-1.208.839-1.778,1.292-4.027,3.255-4.488,5.478-1.921,9.177l-1.518,1.418-1.846.319c-1.057-1.963-2.768-1.678-4.119-.747a14.124,14.124,0,0,0-5.587,5.872l-1.921.73A.545.545,0,0,0,867.934,822.953Zm10.905-14.446c-7.416,5.872-7.416,5.872-7.734,8.389,3.993-2.282,6.728-5.117,7.751-8.389Z" transform="translate(-139.399 -127.018)"/><path class="b" d="M654.913,580.97c1.812-.361,3.137-.117,3.565,2.047.134.7,1.015,1.376,1.678,1.837,1.862,1.25,3.356,2.34,2.433,5.151s-1.879,4.765-5.235,5.117c-4.069.428-4.06.671-2.651,4.362.386,1,.9,1.946,1.325,2.928s1.594,1.98.529,3.473-2.3.923-3.481.839c-8.615-.5-10.763-3.867-7.726-11.979a72.033,72.033,0,0,1,5.419-11.652C651.725,581.465,652.891,580.4,654.913,580.97Z" transform="translate(-103.768 -93.548)"/><path class="b" d="M742.99,820.654c.369,1.569-.285,2.617-1.443,3.641-2.869,2.517-4.907,6.006-8.657,7.55-4.01,1.678-7.021-.118-7.441-4.354-.185-1.913-.059-4.077-.914-5.671-1.678-3.171-.411-4.681,2.332-5.721,1.569-.6,2.248-2.877,4.3-2.382,3.725.9,7.667,1.074,10.964,3.431C743.519,818.137,742.806,819.471,742.99,820.654Z" transform="translate(-116.615 -131.061)"/><path class="b" d="M700.476,253c3.985,2,5.109,5.511,4.849,9.077-.487,6.627,1.325,10.905,8.691,11.342,1.678.1,3.1,1.434,4.4,2.575,2.886,2.517,2.819,3.641-.369,5.755a4.253,4.253,0,0,0-2.1,3.037,50.324,50.324,0,0,1-1.233,5.654c-.621,2.206-.487,3.7,2.248,4.345,1.871.445,3.473,1.636,2.961,4.152-.227,1.107.268,2.517-1.443,2.768s-3.574-.235-4.01-1.887c-1.049-3.968-3.112-7.55-4.094-11.5a12.788,12.788,0,0,1-.21-3.842c.3-5.033.327-5.033-2.424-8.951C703.706,269.836,700.157,259.015,700.476,253Z" transform="translate(-112.857 -40.73)"/><path class="b" d="M401.28,29.02c-.31-4.866,2.022-8.33,5.579-11.325,2.458-2.064,4.48-1.418,6.426.478a12.583,12.583,0,0,1,3.809,10.478c-.369,4.01-3.884,5.126-6.87,6.334a7.281,7.281,0,0,1-8.313-1.678C400.8,32.208,401.406,30.463,401.28,29.02Z" transform="translate(-64.645 -2.613)"/><path class="b" d="M56.917,292.11c6.057.386,9.488,6.577,6.652,12.189a43.474,43.474,0,0,1-3.658,6.006c-2.7,3.658-6.233,4.58-9.84,2.81-3.246-1.6-4.765-5.6-3.624-9.672a17.8,17.8,0,0,1,.7-1.778C51.271,299.408,53.922,295.608,56.917,292.11Zm-5.872,14.806c-.839,2.861.906,2.8,2.609,2.517,3.356-.512,4.756-4.765,2.995-8.976-.327-.772-.537-1.829-1.426-2.022-1.074-.235-1.225.965-1.736,1.594C51.783,302.084,50.642,304.349,51.045,306.916Z" transform="translate(-7.423 -47.032)"/><path class="b" d="M359.111,8.7c.545-1.225-.889-3.054.839-3.431s2.458,1.258,3.012,2.743a20.323,20.323,0,0,0,1.678,3.792c.545.839.965,2.609,2.273,2.03a4.815,4.815,0,0,0,3-4.564c.042-2.189-1.443-1.334-2.391-1.5-1.921-.327-2.961-1.376-2.592-3.356.419-2.181,1.518-4.069,3.918-4.387,2-.277,3.54.252,4.329,2.693,1.015,3.1,1.938,6.115,1.636,9.4a6.854,6.854,0,0,1-3.356,5.57c-5.545,3.238-8.976,2.164-11.526-4.085C359.312,12.1,359.354,10.287,359.111,8.7Z" transform="translate(-57.852 0.039)"/><path class="b" d="M160.468,66.441a8.2,8.2,0,0,1-7.265-4.194c-1.3-2.139-.772-4.069,1.216-5.646.8-.629,1.267-.646,1.678.3.369.772.839,1.518,1.191,2.282.545,1.04,1.107,2.517,2.517,1.544,1.627-1.057-.285-1.753-.688-2.466-1.116-2-1.4-4.194-.294-6.006s3.356-1.166,5.2-.839a10.789,10.789,0,0,1,2.1.747c4.522,1.8,5.7,5.142,3.087,9.135A11.6,11.6,0,0,1,160.468,66.441Z" transform="translate(-24.569 -8.189)"/><path class="b" d="M284.23,576.55c.084,3.708,2.659,5.654,5.335,7.55.671.47,1.678.545,1.745,1.678l-14.127,10c-1.611-2.81-4.706-4.194-6.594-6.711a122.353,122.353,0,0,1,13.64-12.516Z" transform="translate(-43.597 -92.86)"/><path class="b" d="M164.707,92.423c-1.9.931-2.768-.638-3.741-1.887-2.2-2.844-4.253-5.805-2.835-9.656.663-1.8,1.753-3.356,4.085-1.9,1.057.646,2,.159,3.02-.319,4.345-2.038,6.711-.386,6.384,4.413-.084,1.174-.26,2.349-.445,3.507C170.411,91.316,169.556,92.1,164.707,92.423Z" transform="translate(-25.402 -12.504)"/><path class="b" d="M309.417,560.765c-1.367-3.272-5.126-3.037-7.357-5.033,4.4-3.356,5.931-8.976,9.823-12.759,3.59-.982,5.646,1.963,8.389,3.263l-.168,1.216-1.023,1.384C315.994,552.921,313.158,557.225,309.417,560.765Z" transform="translate(-48.668 -87.419)"/><path class="b" d="M385.448,26.031c-4.706.075-6.887-2.022-6.988-6.711-.067-2.886,3.809-7.634,6.334-7.751,3.7-.176,7.089,3.632,7.105,7.986A6.711,6.711,0,0,1,385.448,26.031Z" transform="translate(-60.977 -1.83)"/><path class="b" d="M459.21,543.929c0-3.666,1.585-4.882,5.31-4.454a9.639,9.639,0,0,1,7.4,5.033c.738,1.25,1.367,3.045-1.174,3.221-1.678.117-1.636,1.342-1.946,2.416-.629,2.19-1.426,5.033-3.708,5.092-2.517.067-3.892-2.567-4.614-5.033a22.378,22.378,0,0,1-1.267-6.275Z" transform="translate(-73.988 -86.874)"/><path class="b" d="M646.23,502.9c.319-5.57,3.2-8.85,6.518-11.82,1.1-.982,2.517-.243,2.122.965-.612,2.089.839,2.106,1.879,2.424,1.2.369,2.391.621,2.29,2.139-.075,1.225-.2,2.357-1.678,3.112-3,1.535-3.993,4.53-4.706,7.55-.21.889-.05,1.955-1.476,2.08a2.819,2.819,0,0,1-2.752-1.1,8.892,8.892,0,0,1-2.2-5.352Z" transform="translate(-104.12 -79.017)"/><path class="b" d="M650.967,622.476c-1.409,3.087-1.862,8.129-4.454,8.229-5.285.218-10.461,2.441-15.846,1.082-2.433-.612-2.131-2.3-2.038-3.968.1-1.9,1.233-2.424,3.037-2.307,5.948.394,11.744,0,17.138-2.978a2.056,2.056,0,0,1,.931-.185,9.368,9.368,0,0,1,1.233.126Z" transform="translate(-101.274 -100.239)"/><path class="b" d="M277.124,170.316c-.059,5.268-2,7.617-7.248,7.625-2.4,0-4.723-1.51-6.526-3.221-1.25-1.191-.2-2.4.73-3.305a27.893,27.893,0,0,1,7.021-5.033C275.178,164.41,277.175,165.769,277.124,170.316Z" transform="translate(-42.338 -26.633)"/><path class="b" d="M551.625,32.648c-.294-1.5-1.46-2.517-2.131-3.8.143-1.837-.755-3.8.789-5.478,1.007-1.1,1.812-1.6,2.517.218.109.3.21.6.336.9.73,1.678,1.678,3.85,3.607,3.288,1.51-.436-.109-2.617.268-3.993a2.677,2.677,0,0,1,2.668,1.141c1.535,1.678,2.877,3.632,5.033,4.614-.73,1.678-2.517,2.416-3.565,3.842l-4.538,1.376a12.055,12.055,0,0,1-4.983-2.106Z" transform="translate(-88.513 -3.573)"/><path class="b" d="M233.213,46.986c-4.085.839-7.256-4.882-5.033-8.892a2.038,2.038,0,0,1,1.963-1.258,27.6,27.6,0,0,0,5.36-.755,2.894,2.894,0,0,1,3.54,3.565,45.35,45.35,0,0,1-2.458,6.233C235.905,47.439,234.4,46.777,233.213,46.986Z" transform="translate(-36.646 -5.764)"/><path class="b" d="M802.873,606.364c0,4.522-3.406,6.711-7.03,5.344-1.678-.654-3.448-1.552-5.26.277a2.709,2.709,0,0,1-3.3.243c-.973-.688-.654-1.736-.6-2.659.084-1.678,1.485-1.057,2.416-1.317,1.552-.445,2.861-.721,3.616-2.844.839-2.357,3.733-2.643,6.1-2.148C800.8,603.655,802.764,604.51,802.873,606.364Z" transform="translate(-126.735 -97.131)"/><path class="b" d="M678.17,420.069c-.059-4.538,2.794-6.065,6.141-3.825,2.022,1.359,4,2.777,6.09,4.027,1.569.948,1.376,1.77-.193,2.374a26.845,26.845,0,0,0-5.872,3.2,2.332,2.332,0,0,1-3.607-.57C679.353,423.425,678.212,421.546,678.17,420.069Z" transform="translate(-109.266 -66.868)"/><path class="b" d="M316.86,535.826a17.365,17.365,0,0,0,1.82-6.082c.084-1.023-.923-2.575.906-2.9a4.2,4.2,0,0,1,4.111,1.133c3.691,3.918,3.8,7.818.21,13.665C322.17,538.955,319.133,537.857,316.86,535.826Z" transform="translate(-51.052 -84.828)"/><path class="b" d="M592.392,15.468c3.163,1.569,4.337,3.968,3.288,6.912-.772,2.189-1.846,3.767-4.714,2.911-1.812-.545-3.851-.243-5.671-1.032a3.624,3.624,0,0,1,1.678-2.953,1.4,1.4,0,0,0,.243-2.4c-.94-1.065-1.787-1.082-2.517.159-.47.789-1.242.713-1.971.839-.21-2.357,2.9-5.117,5.788-5.126A2.466,2.466,0,0,0,590.5,17.2C591.645,17.389,592.182,16.5,592.392,15.468Z" transform="translate(-93.887 -2.348)"/><path class="b" d="M597.1,497.421c-2.785-.084-4.664-1.745-4.673-4.1,0-2.726,3.934-5.822,7.156-5.621,1.678.1,4.253,3.565,4.194,5.629C603.713,496.758,602.362,497.589,597.1,497.421Z" transform="translate(-95.452 -78.543)"/><path class="b" d="M653.565,469.705c-.134,3.28-2.114,5.293-5.033,5.092-1.468-.1-5.738-3.741-5.612-4.8s4.639-4.782,5.6-4.689C650.906,465.536,653.632,467.919,653.565,469.705Z" transform="translate(-103.586 -74.937)"/><path class="b" d="M673.961,629.958a7.658,7.658,0,0,1-.151,1.921c-.5,1.485.2,3.658-2.2,4.119-2.575.495-5.033.185-6.795-1.887-1.552-1.812.176-5.369,2.735-5.872a18.576,18.576,0,0,0,3.121-.646C674.28,626.258,674.271,626.225,673.961,629.958Z" transform="translate(-107.02 -100.952)"/><path class="b" d="M819.307,616.326c-2.265-.2-4.555-.839-5.528-3.037-.554-1.258,2.911-4.455,4.371-4.429,2.76,0,5.243,2.013,5.159,4.329C823.224,615.638,821.631,616.527,819.307,616.326Z" transform="translate(-131.106 -98.066)"/><path class="b" d="M684.664,600.5c-.839-.185-2.617-.52-4.379-.965-2.106-.537-1.854-2.231-.772-3.087a7.99,7.99,0,0,1,7.827-1.619c1.426.5,3.012,1.569,2.617,3.221C689.487,600.02,687.65,600.7,684.664,600.5Z" transform="translate(-109.351 -95.735)"/><path class="b" d="M710.7,611.938c-.738-2.911,1.216-3.439,3.356-3.548s4.689,2.215,4.53,3.993c-.227,2.441-1.611,3.683-4.035,3.414C712.356,615.553,709.806,615.419,710.7,611.938Z" transform="translate(-114.477 -97.99)"/><path class="b" d="M259.974,42.68c.394-.7-1.116-2.877,1.124-3.129,3.314-.369,5.428,1.443,5.545,4.136.1,2.273-.268,4.035-3.163,4.1C260.108,47.864,259.638,45.851,259.974,42.68Z" transform="translate(-41.865 -6.332)"/><path class="b" d="M847.414,629.421c.428,2.416-1.678,2.651-3.2,3.028-1.384.344-4.564-2.4-4.538-3.649.05-1.938.369-3.775,2.877-3.8C845.636,625,847.431,626.611,847.414,629.421Z" transform="translate(-135.289 -100.667)"/><path class="b" d="M253.567,30.923A2.766,2.766,0,0,1,250.69,28.1c-.067-1.678,2.819-5.117,4.194-5.176,1.216-.05,3.5,3.632,3.4,5.495C258.231,29.4,255.5,30.956,253.567,30.923Z" transform="translate(-40.391 -3.66)"/><path class="b" d="M683.57,588.446a25.238,25.238,0,0,0-.059-4.865c-.47-2.2.839-3.825,2.315-3.8a4.622,4.622,0,0,1,4.194,3.356c.52,2.013,0,3.851-2.424,4.421C686.33,587.842,685.1,588.11,683.57,588.446Z" transform="translate(-110.111 -93.381)"/><path class="b" d="M870.916,660.857c2.273.185,4.79,2.768,4.329,4.7a3.179,3.179,0,0,1-3.355,2.357c-1.678,0-4.706-3.163-4.412-4.412A3.051,3.051,0,0,1,870.916,660.857Z" transform="translate(-139.764 -106.442)"/><path class="b" d="M123,381.463c1.04-.537-.4-2.71,1.594-2.793s5.335,3.221,5.092,5.033-1.737,2.693-3.213,3.2C125.515,387.251,122.848,383.074,123,381.463Z" transform="translate(-19.816 -60.978)"/><path class="b" d="M835.856,624.215c-1.04,1.258-1.586,3.574-3.523,3.532a3.607,3.607,0,0,1-3.263-3.733c0-1.476.68-3.506,2.936-3.356C834.044,620.768,835.244,622.051,835.856,624.215Z" transform="translate(-133.579 -99.966)"/><path class="b" d="M191.68,403.76a12.652,12.652,0,0,1,2.122.168,3.006,3.006,0,0,1,2.441,2.307c.1,1.141-1.074,1.946-2.248,2.29a13,13,0,0,1-1.9.344c-2.089.252-4.421-.134-4.53-2.391S190.01,404.087,191.68,403.76Z" transform="translate(-30.22 -65.021)"/><path class="b" d="M579.821,53.684c-2.038-.352-3.85-1.032-3.683-3.565.109-1.678.889-2.861,2.9-2.567,1.862.277,3.574,1.166,3.49,3.037C582.471,51.721,582.421,54.17,579.821,53.684Z" transform="translate(-92.825 -7.621)"/><path class="b" d="M151.592,397.4c-.05,4.236-1,5.621-3.666,5.771-2.517.143-2.189-1.921-2.668-3.238-.688-1.9.965-1.678,2.03-1.862,1.451-.243,2.911-.4,4.371-.6Z" transform="translate(-23.378 -63.996)"/><path class="b" d="M124.309,369.24a7.952,7.952,0,0,1,2.659,3.163c.529,1.2,1.879,2.718.579,3.683-.789.587-2.693.076-3.909-.4-1.577-.621-.99-2.2-.721-3.356a16.661,16.661,0,0,1,1.393-3.087Z" transform="translate(-19.75 -59.459)"/><path class="b" d="M520.684,525.966c-1.04-.654-3.054-.436-2.886-2.819.143-1.871,1.275-1.988,2.668-1.745,1.678.294,3.121.881,2.995,2.995C523.36,526.083,522.16,526.083,520.684,525.966Z" transform="translate(-83.426 -83.96)"/><path class="b" d="M338.444,519.659c-.1,1.56-.419,3.028-1.778,2.919s-3.053-.57-3.188-2.382c-.084-1.149.361-2.575,1.913-2.273C336.565,518.123,338.377,517.914,338.444,519.659Z" transform="translate(-53.728 -83.408)"/><path class="b" d="M889.943,817.013c-.621-1.879-.327-3.448,1.476-4.547a3.8,3.8,0,0,0,1.77-2.517,3.356,3.356,0,0,1,2,2.869c-.4,2.24-2.911,2.29-3.985,3.834Z" transform="translate(-143.339 -130.466)"/><path class="b" d="M799.651,223.113c.294,1.585-.747,1.6-1.544,1.6a4.547,4.547,0,0,1-4.069-2.458c-.4-.839,1.359-1.678,2.231-1.678A3.557,3.557,0,0,1,799.651,223.113Z" transform="translate(-127.925 -35.507)"/><path class="b" d="M228.775,418.591c-1.267-.545-3.255-.344-3.255-2.08,0-1.485,1.619-2.1,3.028-2.282a1.879,1.879,0,0,1,2.34,1.963,2.433,2.433,0,0,1-2.114,2.4Z" transform="translate(-36.335 -66.698)"/><path class="b" d="M700.682,620.18c1.585.26,2.34,1.007,2.257,2.189-.092,1.409-1.2,1.862-2.475,1.9s-2.7-.931-2.517-1.837C698.123,621.178,699.843,620.8,700.682,620.18Z" transform="translate(-112.45 -99.89)"/><path class="b" d="M274.336,26.285l-1.258-1.468a.914.914,0,0,1,0-.31c.629-1.049-.252-3.1,1.938-3.087,1.04,0,1.518,1.023,1.6,1.787C276.819,24.809,276.366,26.185,274.336,26.285Z" transform="translate(-43.996 -3.418)"/><path class="b" d="M854.782,689.47c1.384.763,2.844,1.334,2.844,2.894,0,1.1-1.241.914-2.038.973-1.678.117-2.24-1.116-2.441-2.349S854.363,690.124,854.782,689.47Z" transform="translate(-137.455 -111.054)"/><path class="b" d="M119.136,573.037c-.839-.47-1.98-.839-2-1.812a1.879,1.879,0,0,1,1.98-2c.839,0,1.9-.151,1.862,1.074a3.23,3.23,0,0,1-1.846,2.735Z" transform="translate(-18.873 -91.68)"/><path class="b" d="M727.45,339.671c1.208-3.431,4.1-2.1,6.459-2.3a16.9,16.9,0,0,1-6.459,2.3Z" transform="translate(-117.206 -54.309)"/><path class="b" d="M542.064,576.792c0,.956-.344,1.678-1.451,1.569-.7-.05-1.191-.386-1.183-1.166a1.517,1.517,0,0,1,1.409-1.736C541.854,575.357,542.165,575.911,542.064,576.792Z" transform="translate(-86.912 -92.683)"/><path class="b" d="M767.37,211.839l.839-.839a13.482,13.482,0,0,1,3.163,5.277l-1.183.126Z" transform="translate(-123.638 -33.963)"/><path class="b" d="M736.8,336.135c-.554-1.837,1.141-2.852,1.409-4.5,1.317.965.218,2.181.755,3.07C738.8,336.026,737.789,336.076,736.8,336.135Z" transform="translate(-118.695 -53.399)"/><path class="b" d="M719.12,329.537c.839.185,1.124-1.208,2.231-.839-.126,1.4-1.124,1.451-2.148,1.468C719.179,329.965,719.145,329.78,719.12,329.537Z" transform="translate(-115.864 -52.917)"/><path class="b" d="M719.64,332.78c.747.344.914.755.151,1.275Z" transform="translate(-115.948 -53.584)"/><path class="b" d="M57.334,288.134l-.294.252.252-.285Z" transform="translate(-9.19 -46.386)"/><path class="b" d="M33.61,548.235c1.569-1.468,3.012-1.183,4.345.327s.587,2.7-.554,3.884a5.821,5.821,0,0,0-.713,1.384Z" transform="translate(-5.415 -88.143)"/></g></g></svg>