<svg xmlns="http://www.w3.org/2000/svg" width="100.303" height="17.387" viewBox="0 0 100.303 17.387">
  <g id="Star_Orange_" data-name="Star (Orange)" transform="translate(-274 -456.891)">
    <path id="Icon_material-star-border" data-name="Icon material-star-border" d="M21.3,9.626l-6.58-.567L12.151,3,9.58,9.067,3,9.626l5,4.329L6.5,20.387l5.656-3.413,5.655,3.413-1.492-6.433Zm-9.151,5.637L8.71,17.34l.915-3.917L6.587,10.788,10.6,10.44l1.556-3.688,1.565,3.7,4.008.348-3.038,2.636.915,3.917Z" transform="translate(271 453.891)" fill="#e54e13"/>
    <path id="Icon_material-star-border-2" data-name="Icon material-star-border" d="M21.3,9.626l-6.58-.567L12.151,3,9.58,9.067,3,9.626l5,4.329L6.5,20.387l5.656-3.413,5.655,3.413-1.492-6.433Zm-9.151,5.637L8.71,17.34l.915-3.917L6.587,10.788,10.6,10.44l1.556-3.688,1.565,3.7,4.008.348-3.038,2.636.915,3.917Z" transform="translate(312 453.891)" fill="#e54e13"/>
    <path id="Icon_material-star-border-3" data-name="Icon material-star-border" d="M21.3,9.626l-6.58-.567L12.151,3,9.58,9.067,3,9.626l5,4.329L6.5,20.387l5.656-3.413,5.655,3.413-1.492-6.433Zm-9.151,5.637L8.71,17.34l.915-3.917L6.587,10.788,10.6,10.44l1.556-3.688,1.565,3.7,4.008.348-3.038,2.636.915,3.917Z" transform="translate(292 453.891)" fill="#e54e13"/>
    <path id="Icon_material-star-border-4" data-name="Icon material-star-border" d="M21.3,9.626l-6.58-.567L12.151,3,9.58,9.067,3,9.626l5,4.329L6.5,20.387l5.656-3.413,5.655,3.413-1.492-6.433Zm-9.151,5.637L8.71,17.34l.915-3.917L6.587,10.788,10.6,10.44l1.556-3.688,1.565,3.7,4.008.348-3.038,2.636.915,3.917Z" transform="translate(333 453.891)" fill="#e54e13"/>
    <path id="Icon_material-star-border-5" data-name="Icon material-star-border" d="M21.3,9.626l-6.58-.567L12.151,3,9.58,9.067,3,9.626l5,4.329L6.5,20.387l5.656-3.413,5.655,3.413-1.492-6.433Zm-9.151,5.637L8.71,17.34l.915-3.917L6.587,10.788,10.6,10.44l1.556-3.688,1.565,3.7,4.008.348-3.038,2.636.915,3.917Z" transform="translate(353 453.891)" fill="#e54e13"/>
  </g>
</svg>
